%TF.GenerationSoftware,KiCad,Pcbnew,7.0.1*%
%TF.CreationDate,2023-04-24T08:20:04-06:00*%
%TF.ProjectId,Phase_B_Prototype,50686173-655f-4425-9f50-726f746f7479,rev?*%
%TF.SameCoordinates,Original*%
%TF.FileFunction,Copper,L1,Top*%
%TF.FilePolarity,Positive*%
%FSLAX46Y46*%
G04 Gerber Fmt 4.6, Leading zero omitted, Abs format (unit mm)*
G04 Created by KiCad (PCBNEW 7.0.1) date 2023-04-24 08:20:04*
%MOMM*%
%LPD*%
G01*
G04 APERTURE LIST*
G04 Aperture macros list*
%AMRoundRect*
0 Rectangle with rounded corners*
0 $1 Rounding radius*
0 $2 $3 $4 $5 $6 $7 $8 $9 X,Y pos of 4 corners*
0 Add a 4 corners polygon primitive as box body*
4,1,4,$2,$3,$4,$5,$6,$7,$8,$9,$2,$3,0*
0 Add four circle primitives for the rounded corners*
1,1,$1+$1,$2,$3*
1,1,$1+$1,$4,$5*
1,1,$1+$1,$6,$7*
1,1,$1+$1,$8,$9*
0 Add four rect primitives between the rounded corners*
20,1,$1+$1,$2,$3,$4,$5,0*
20,1,$1+$1,$4,$5,$6,$7,0*
20,1,$1+$1,$6,$7,$8,$9,0*
20,1,$1+$1,$8,$9,$2,$3,0*%
G04 Aperture macros list end*
%TA.AperFunction,ComponentPad*%
%ADD10R,1.500000X1.500000*%
%TD*%
%TA.AperFunction,ComponentPad*%
%ADD11C,1.500000*%
%TD*%
%TA.AperFunction,SMDPad,CuDef*%
%ADD12RoundRect,0.250000X-0.450000X0.262500X-0.450000X-0.262500X0.450000X-0.262500X0.450000X0.262500X0*%
%TD*%
%TA.AperFunction,SMDPad,CuDef*%
%ADD13R,1.000000X0.700000*%
%TD*%
%TA.AperFunction,SMDPad,CuDef*%
%ADD14RoundRect,0.250000X0.450000X-0.262500X0.450000X0.262500X-0.450000X0.262500X-0.450000X-0.262500X0*%
%TD*%
%TA.AperFunction,SMDPad,CuDef*%
%ADD15RoundRect,0.225000X-0.250000X0.225000X-0.250000X-0.225000X0.250000X-0.225000X0.250000X0.225000X0*%
%TD*%
%TA.AperFunction,SMDPad,CuDef*%
%ADD16R,1.400000X1.200000*%
%TD*%
%TA.AperFunction,SMDPad,CuDef*%
%ADD17RoundRect,0.250000X0.262500X0.450000X-0.262500X0.450000X-0.262500X-0.450000X0.262500X-0.450000X0*%
%TD*%
%TA.AperFunction,SMDPad,CuDef*%
%ADD18RoundRect,0.250000X-0.312500X-1.450000X0.312500X-1.450000X0.312500X1.450000X-0.312500X1.450000X0*%
%TD*%
%TA.AperFunction,SMDPad,CuDef*%
%ADD19RoundRect,0.150000X-0.512500X-0.150000X0.512500X-0.150000X0.512500X0.150000X-0.512500X0.150000X0*%
%TD*%
%TA.AperFunction,SMDPad,CuDef*%
%ADD20R,2.000000X1.500000*%
%TD*%
%TA.AperFunction,ComponentPad*%
%ADD21R,1.700000X1.700000*%
%TD*%
%TA.AperFunction,ComponentPad*%
%ADD22O,1.700000X1.700000*%
%TD*%
%TA.AperFunction,SMDPad,CuDef*%
%ADD23RoundRect,0.225000X0.225000X0.250000X-0.225000X0.250000X-0.225000X-0.250000X0.225000X-0.250000X0*%
%TD*%
%TA.AperFunction,SMDPad,CuDef*%
%ADD24RoundRect,0.225000X0.250000X-0.225000X0.250000X0.225000X-0.250000X0.225000X-0.250000X-0.225000X0*%
%TD*%
%TA.AperFunction,SMDPad,CuDef*%
%ADD25R,1.500000X0.550000*%
%TD*%
%TA.AperFunction,SMDPad,CuDef*%
%ADD26R,0.550000X1.500000*%
%TD*%
%TA.AperFunction,SMDPad,CuDef*%
%ADD27RoundRect,0.225000X-0.225000X-0.250000X0.225000X-0.250000X0.225000X0.250000X-0.225000X0.250000X0*%
%TD*%
%TA.AperFunction,SMDPad,CuDef*%
%ADD28RoundRect,0.200000X-0.200000X-0.275000X0.200000X-0.275000X0.200000X0.275000X-0.200000X0.275000X0*%
%TD*%
%TA.AperFunction,SMDPad,CuDef*%
%ADD29RoundRect,0.243750X-0.243750X-0.456250X0.243750X-0.456250X0.243750X0.456250X-0.243750X0.456250X0*%
%TD*%
%TA.AperFunction,SMDPad,CuDef*%
%ADD30R,2.000000X0.500000*%
%TD*%
%TA.AperFunction,SMDPad,CuDef*%
%ADD31R,1.700000X2.000000*%
%TD*%
%TA.AperFunction,SMDPad,CuDef*%
%ADD32RoundRect,0.100000X-0.637500X-0.100000X0.637500X-0.100000X0.637500X0.100000X-0.637500X0.100000X0*%
%TD*%
%TA.AperFunction,SMDPad,CuDef*%
%ADD33RoundRect,0.200000X0.200000X0.275000X-0.200000X0.275000X-0.200000X-0.275000X0.200000X-0.275000X0*%
%TD*%
%TA.AperFunction,SMDPad,CuDef*%
%ADD34RoundRect,0.243750X0.243750X0.456250X-0.243750X0.456250X-0.243750X-0.456250X0.243750X-0.456250X0*%
%TD*%
%TA.AperFunction,SMDPad,CuDef*%
%ADD35RoundRect,0.200000X0.275000X-0.200000X0.275000X0.200000X-0.275000X0.200000X-0.275000X-0.200000X0*%
%TD*%
%TA.AperFunction,SMDPad,CuDef*%
%ADD36RoundRect,0.250000X-0.475000X0.250000X-0.475000X-0.250000X0.475000X-0.250000X0.475000X0.250000X0*%
%TD*%
%TA.AperFunction,ComponentPad*%
%ADD37R,2.000000X2.000000*%
%TD*%
%TA.AperFunction,ComponentPad*%
%ADD38C,2.000000*%
%TD*%
%TA.AperFunction,ViaPad*%
%ADD39C,0.600000*%
%TD*%
%TA.AperFunction,Conductor*%
%ADD40C,0.381000*%
%TD*%
%TA.AperFunction,Conductor*%
%ADD41C,0.203200*%
%TD*%
%TA.AperFunction,Conductor*%
%ADD42C,0.508000*%
%TD*%
G04 APERTURE END LIST*
D10*
%TO.P,U1,1,e*%
%TO.N,Net-(U1-e)*%
X132118000Y-59144000D03*
D11*
%TO.P,U1,2,d*%
%TO.N,Net-(U1-d)*%
X134658000Y-59144000D03*
%TO.P,U1,3,DPX*%
%TO.N,Net-(U1-DPX)*%
X137198000Y-59144000D03*
%TO.P,U1,4,c*%
%TO.N,Net-(U1-c)*%
X139738000Y-59144000D03*
%TO.P,U1,5,g*%
%TO.N,Net-(U1-g)*%
X142278000Y-59144000D03*
%TO.P,U1,6,CA4*%
%TO.N,Dig4*%
X144818000Y-59144000D03*
%TO.P,U1,7,b*%
%TO.N,Net-(U1-b)*%
X144818000Y-43904000D03*
%TO.P,U1,8,CA3*%
%TO.N,Dig3*%
X142278000Y-43904000D03*
%TO.P,U1,9,CA2*%
%TO.N,Dig2*%
X139738000Y-43904000D03*
%TO.P,U1,10,f*%
%TO.N,Net-(U1-f)*%
X137198000Y-43904000D03*
%TO.P,U1,11,a*%
%TO.N,Net-(U1-a)*%
X134658000Y-43904000D03*
%TO.P,U1,12,CA1*%
%TO.N,Dig1*%
X132118000Y-43904000D03*
%TD*%
D12*
%TO.P,R17,1*%
%TO.N,Net-(J3-Pin_5)*%
X167106600Y-69648700D03*
%TO.P,R17,2*%
%TO.N,+3V3*%
X167106600Y-71473700D03*
%TD*%
D13*
%TO.P,S3,1*%
%TO.N,GND*%
X141439800Y-110223400D03*
%TO.P,S3,2*%
%TO.N,N/C*%
X135439800Y-110223400D03*
%TO.P,S3,3*%
%TO.N,RST*%
X141439800Y-106523400D03*
%TO.P,S3,4*%
%TO.N,N/C*%
X135439800Y-106523400D03*
%TD*%
D14*
%TO.P,R11,1*%
%TO.N,g*%
X143675000Y-66484600D03*
%TO.P,R11,2*%
%TO.N,Net-(U1-g)*%
X143675000Y-64659600D03*
%TD*%
D15*
%TO.P,C2,1*%
%TO.N,XTAL1*%
X150952200Y-109829000D03*
%TO.P,C2,2*%
%TO.N,GND*%
X150952200Y-111379000D03*
%TD*%
D14*
%TO.P,R12,1*%
%TO.N,dp*%
X147561200Y-66484600D03*
%TO.P,R12,2*%
%TO.N,Net-(U1-DPX)*%
X147561200Y-64659600D03*
%TD*%
D16*
%TO.P,Y1,1,1*%
%TO.N,XTAL1*%
X148796000Y-109613800D03*
%TO.P,Y1,2,2*%
%TO.N,GND*%
X146596000Y-109613800D03*
%TO.P,Y1,3,3*%
%TO.N,XTAL2*%
X146596000Y-111213800D03*
%TO.P,Y1,4,4*%
%TO.N,GND*%
X148796000Y-111213800D03*
%TD*%
D14*
%TO.P,R3,1*%
%TO.N,RED_LED*%
X174863900Y-61297300D03*
%TO.P,R3,2*%
%TO.N,Net-(D1-A)*%
X174863900Y-59472300D03*
%TD*%
D17*
%TO.P,R14,1*%
%TO.N,+5V*%
X128278800Y-88582600D03*
%TO.P,R14,2*%
%TO.N,Net-(D3-A)*%
X126453800Y-88582600D03*
%TD*%
D18*
%TO.P,F1,1*%
%TO.N,Net-(J1-VBUS)*%
X115832700Y-84899600D03*
%TO.P,F1,2*%
%TO.N,+5V*%
X120107700Y-84899600D03*
%TD*%
D19*
%TO.P,U4,1,I/O1*%
%TO.N,USB_CONN_D-*%
X123570400Y-92801000D03*
%TO.P,U4,2,GND*%
%TO.N,GND*%
X123570400Y-93751000D03*
%TO.P,U4,3,I/O2*%
%TO.N,USB_CONN_D+*%
X123570400Y-94701000D03*
%TO.P,U4,4,I/O2*%
%TO.N,USB_D+*%
X125845400Y-94701000D03*
%TO.P,U4,5,VBUS*%
%TO.N,+5V*%
X125845400Y-93751000D03*
%TO.P,U4,6,I/O1*%
%TO.N,USB_D-*%
X125845400Y-92801000D03*
%TD*%
D20*
%TO.P,S1,A1,NO_1*%
%TO.N,unconnected-(S1-NO_1-PadA1)*%
X174434200Y-116573400D03*
%TO.P,S1,B1,NO_2*%
%TO.N,Button_1*%
X160134200Y-116573400D03*
%TO.P,S1,C1,COM_1*%
%TO.N,+5V*%
X174434200Y-111573400D03*
%TO.P,S1,D1,COM_2*%
%TO.N,unconnected-(S1-COM_2-PadD1)*%
X160134200Y-111573400D03*
%TD*%
D14*
%TO.P,R6,1*%
%TO.N,b*%
X135191400Y-66484600D03*
%TO.P,R6,2*%
%TO.N,Net-(U1-b)*%
X135191400Y-64659600D03*
%TD*%
D21*
%TO.P,J3,1,Pin_1*%
%TO.N,GND*%
X156464000Y-69215000D03*
D22*
%TO.P,J3,2,Pin_2*%
%TO.N,TX*%
X156464000Y-71755000D03*
%TO.P,J3,3,Pin_3*%
%TO.N,unconnected-(J3-Pin_3-Pad3)*%
X159004000Y-69215000D03*
%TO.P,J3,4,Pin_4*%
%TO.N,+3V3*%
X159004000Y-71755000D03*
%TO.P,J3,5,Pin_5*%
%TO.N,Net-(J3-Pin_5)*%
X161544000Y-69215000D03*
%TO.P,J3,6,Pin_6*%
%TO.N,+3V3*%
X161544000Y-71755000D03*
%TO.P,J3,7,Pin_7*%
%TO.N,RX*%
X164084000Y-69215000D03*
%TO.P,J3,8,Pin_8*%
%TO.N,+3V3*%
X164084000Y-71755000D03*
%TD*%
D23*
%TO.P,C9,1*%
%TO.N,+5V*%
X139218000Y-96774000D03*
%TO.P,C9,2*%
%TO.N,GND*%
X137668000Y-96774000D03*
%TD*%
D14*
%TO.P,R9,1*%
%TO.N,e*%
X126377600Y-66484600D03*
%TO.P,R9,2*%
%TO.N,Net-(U1-e)*%
X126377600Y-64659600D03*
%TD*%
D24*
%TO.P,C12,1*%
%TO.N,+5V*%
X158369000Y-79654400D03*
%TO.P,C12,2*%
%TO.N,GND*%
X158369000Y-78104400D03*
%TD*%
D25*
%TO.P,U3,1,PE6*%
%TO.N,SH_CP*%
X142140600Y-91313600D03*
%TO.P,U3,2,UVCC*%
%TO.N,+5V*%
X142140600Y-92113600D03*
%TO.P,U3,3,D-*%
%TO.N,USB_D-*%
X142140600Y-92913600D03*
%TO.P,U3,4,D+*%
%TO.N,USB_D+*%
X142140600Y-93713600D03*
%TO.P,U3,5,UGND*%
%TO.N,GND*%
X142140600Y-94513600D03*
%TO.P,U3,6,UCAP*%
%TO.N,/UCAP*%
X142140600Y-95313600D03*
%TO.P,U3,7,VBUS*%
%TO.N,+5V*%
X142140600Y-96113600D03*
%TO.P,U3,8,PB0*%
%TO.N,unconnected-(U3-PB0-Pad8)*%
X142140600Y-96913600D03*
%TO.P,U3,9,PB1*%
%TO.N,SCK*%
X142140600Y-97713600D03*
%TO.P,U3,10,PB2*%
%TO.N,MOSI*%
X142140600Y-98513600D03*
%TO.P,U3,11,PB3*%
%TO.N,MISO*%
X142140600Y-99313600D03*
D26*
%TO.P,U3,12,PB7*%
%TO.N,Dig3*%
X143840600Y-101013600D03*
%TO.P,U3,13,~{RESET}*%
%TO.N,RST*%
X144640600Y-101013600D03*
%TO.P,U3,14,VCC*%
%TO.N,+5V*%
X145440600Y-101013600D03*
%TO.P,U3,15,GND*%
%TO.N,GND*%
X146240600Y-101013600D03*
%TO.P,U3,16,XTAL2*%
%TO.N,XTAL2*%
X147040600Y-101013600D03*
%TO.P,U3,17,XTAL1*%
%TO.N,XTAL1*%
X147840600Y-101013600D03*
%TO.P,U3,18,PD0*%
%TO.N,Button_2*%
X148640600Y-101013600D03*
%TO.P,U3,19,PD1*%
%TO.N,Button_1*%
X149440600Y-101013600D03*
%TO.P,U3,20,PD2*%
%TO.N,TX*%
X150240600Y-101013600D03*
%TO.P,U3,21,PD3*%
%TO.N,RX*%
X151040600Y-101013600D03*
%TO.P,U3,22,PD5*%
%TO.N,unconnected-(U3-PD5-Pad22)*%
X151840600Y-101013600D03*
D25*
%TO.P,U3,23,GND*%
%TO.N,GND*%
X153540600Y-99313600D03*
%TO.P,U3,24,AVCC*%
%TO.N,+5V*%
X153540600Y-98513600D03*
%TO.P,U3,25,PD4*%
%TO.N,GREEN_LED*%
X153540600Y-97713600D03*
%TO.P,U3,26,PD6*%
%TO.N,Dig2*%
X153540600Y-96913600D03*
%TO.P,U3,27,PD7*%
%TO.N,Buzzer*%
X153540600Y-96113600D03*
%TO.P,U3,28,PB4*%
%TO.N,ST_CP*%
X153540600Y-95313600D03*
%TO.P,U3,29,PB5*%
%TO.N,DS*%
X153540600Y-94513600D03*
%TO.P,U3,30,PB6*%
%TO.N,Dig4*%
X153540600Y-93713600D03*
%TO.P,U3,31,PC6*%
%TO.N,RED_LED*%
X153540600Y-92913600D03*
%TO.P,U3,32,PC7*%
%TO.N,Dig1*%
X153540600Y-92113600D03*
%TO.P,U3,33,~{HWB}/PE2*%
%TO.N,GND*%
X153540600Y-91313600D03*
D26*
%TO.P,U3,34,VCC*%
%TO.N,+5V*%
X151840600Y-89613600D03*
%TO.P,U3,35,GND*%
%TO.N,GND*%
X151040600Y-89613600D03*
%TO.P,U3,36,PF7*%
%TO.N,unconnected-(U3-PF7-Pad36)*%
X150240600Y-89613600D03*
%TO.P,U3,37,PF6*%
%TO.N,unconnected-(U3-PF6-Pad37)*%
X149440600Y-89613600D03*
%TO.P,U3,38,PF5*%
%TO.N,unconnected-(U3-PF5-Pad38)*%
X148640600Y-89613600D03*
%TO.P,U3,39,PF4*%
%TO.N,unconnected-(U3-PF4-Pad39)*%
X147840600Y-89613600D03*
%TO.P,U3,40,PF1*%
%TO.N,unconnected-(U3-PF1-Pad40)*%
X147040600Y-89613600D03*
%TO.P,U3,41,PF0*%
%TO.N,unconnected-(U3-PF0-Pad41)*%
X146240600Y-89613600D03*
%TO.P,U3,42,AREF*%
%TO.N,/AREF*%
X145440600Y-89613600D03*
%TO.P,U3,43,GND*%
%TO.N,GND*%
X144640600Y-89613600D03*
%TO.P,U3,44,AVCC*%
%TO.N,+5V*%
X143840600Y-89613600D03*
%TD*%
D27*
%TO.P,C6,1*%
%TO.N,+5V*%
X155625200Y-98780600D03*
%TO.P,C6,2*%
%TO.N,GND*%
X157175200Y-98780600D03*
%TD*%
D28*
%TO.P,R15,1*%
%TO.N,Net-(J1-D+)*%
X116077400Y-94548600D03*
%TO.P,R15,2*%
%TO.N,USB_CONN_D+*%
X117727400Y-94548600D03*
%TD*%
%TO.P,R16,1*%
%TO.N,Net-(J1-D-)*%
X116077400Y-92872200D03*
%TO.P,R16,2*%
%TO.N,USB_CONN_D-*%
X117727400Y-92872200D03*
%TD*%
D14*
%TO.P,R8,1*%
%TO.N,d*%
X130949600Y-66484600D03*
%TO.P,R8,2*%
%TO.N,Net-(U1-d)*%
X130949600Y-64659600D03*
%TD*%
D24*
%TO.P,C14,1*%
%TO.N,+3V3*%
X165735000Y-78689200D03*
%TO.P,C14,2*%
%TO.N,GND*%
X165735000Y-77139200D03*
%TD*%
%TO.P,C5,1*%
%TO.N,+5V*%
X143840200Y-87680800D03*
%TO.P,C5,2*%
%TO.N,GND*%
X143840200Y-86130800D03*
%TD*%
D23*
%TO.P,C13,1*%
%TO.N,Net-(U5-BP)*%
X163068600Y-83235800D03*
%TO.P,C13,2*%
%TO.N,GND*%
X161518600Y-83235800D03*
%TD*%
D24*
%TO.P,C1,1*%
%TO.N,XTAL2*%
X144551400Y-111404400D03*
%TO.P,C1,2*%
%TO.N,GND*%
X144551400Y-109854400D03*
%TD*%
D14*
%TO.P,R10,1*%
%TO.N,f*%
X122110400Y-66484600D03*
%TO.P,R10,2*%
%TO.N,Net-(U1-f)*%
X122110400Y-64659600D03*
%TD*%
%TO.P,R4,1*%
%TO.N,GREEN_LED*%
X190639600Y-61299200D03*
%TO.P,R4,2*%
%TO.N,Net-(D2-A)*%
X190639600Y-59474200D03*
%TD*%
D23*
%TO.P,C3,1*%
%TO.N,+5V*%
X151778000Y-87604600D03*
%TO.P,C3,2*%
%TO.N,GND*%
X150228000Y-87604600D03*
%TD*%
D15*
%TO.P,C7,1*%
%TO.N,+5V*%
X145846800Y-104545800D03*
%TO.P,C7,2*%
%TO.N,GND*%
X145846800Y-106095800D03*
%TD*%
D20*
%TO.P,S2,A1,NO_1*%
%TO.N,unconnected-(S2-NO_1-PadA1)*%
X194398600Y-116522600D03*
%TO.P,S2,B1,NO_2*%
%TO.N,Button_2*%
X180098600Y-116522600D03*
%TO.P,S2,C1,COM_1*%
%TO.N,+5V*%
X194398600Y-111522600D03*
%TO.P,S2,D1,COM_2*%
%TO.N,unconnected-(S2-COM_2-PadD1)*%
X180098600Y-111522600D03*
%TD*%
D23*
%TO.P,C11,1*%
%TO.N,/UCAP*%
X139218000Y-95046800D03*
%TO.P,C11,2*%
%TO.N,GND*%
X137668000Y-95046800D03*
%TD*%
D29*
%TO.P,D2,1,K*%
%TO.N,GND*%
X185028500Y-59470400D03*
%TO.P,D2,2,A*%
%TO.N,Net-(D2-A)*%
X186903500Y-59470400D03*
%TD*%
D14*
%TO.P,R7,1*%
%TO.N,c*%
X139712600Y-66484600D03*
%TO.P,R7,2*%
%TO.N,Net-(U1-c)*%
X139712600Y-64659600D03*
%TD*%
D23*
%TO.P,C8,1*%
%TO.N,+5V*%
X139217400Y-91846400D03*
%TO.P,C8,2*%
%TO.N,GND*%
X137667400Y-91846400D03*
%TD*%
D14*
%TO.P,R5,1*%
%TO.N,a*%
X151574400Y-66484600D03*
%TO.P,R5,2*%
%TO.N,Net-(U1-a)*%
X151574400Y-64659600D03*
%TD*%
D30*
%TO.P,J1,1,VBUS*%
%TO.N,Net-(J1-VBUS)*%
X111323000Y-92555000D03*
%TO.P,J1,2,D-*%
%TO.N,Net-(J1-D-)*%
X111323000Y-93355000D03*
%TO.P,J1,3,D+*%
%TO.N,Net-(J1-D+)*%
X111323000Y-94155000D03*
%TO.P,J1,4,ID*%
%TO.N,unconnected-(J1-ID-Pad4)*%
X111323000Y-94955000D03*
%TO.P,J1,5,GND*%
%TO.N,GND*%
X111323000Y-95755000D03*
D31*
%TO.P,J1,6,Shield*%
%TO.N,unconnected-(J1-Shield-Pad6)*%
X111223000Y-89705000D03*
X105773000Y-89705000D03*
X111223000Y-98605000D03*
X105773000Y-98605000D03*
%TD*%
D29*
%TO.P,D3,1,K*%
%TO.N,GND*%
X122315900Y-88582600D03*
%TO.P,D3,2,A*%
%TO.N,Net-(D3-A)*%
X124190900Y-88582600D03*
%TD*%
D32*
%TO.P,U2,1,QB*%
%TO.N,b*%
X136367500Y-75842800D03*
%TO.P,U2,2,QC*%
%TO.N,c*%
X136367500Y-76492800D03*
%TO.P,U2,3,QD*%
%TO.N,d*%
X136367500Y-77142800D03*
%TO.P,U2,4,QE*%
%TO.N,e*%
X136367500Y-77792800D03*
%TO.P,U2,5,QF*%
%TO.N,f*%
X136367500Y-78442800D03*
%TO.P,U2,6,QG*%
%TO.N,g*%
X136367500Y-79092800D03*
%TO.P,U2,7,QH*%
%TO.N,dp*%
X136367500Y-79742800D03*
%TO.P,U2,8,GND*%
%TO.N,GND*%
X136367500Y-80392800D03*
%TO.P,U2,9,QH'*%
%TO.N,unconnected-(U2-QH'-Pad9)*%
X142092500Y-80392800D03*
%TO.P,U2,10,~{SRCLR}*%
%TO.N,+5V*%
X142092500Y-79742800D03*
%TO.P,U2,11,SRCLK*%
%TO.N,SH_CP*%
X142092500Y-79092800D03*
%TO.P,U2,12,RCLK*%
%TO.N,ST_CP*%
X142092500Y-78442800D03*
%TO.P,U2,13,~{OE}*%
%TO.N,GND*%
X142092500Y-77792800D03*
%TO.P,U2,14,SER*%
%TO.N,DS*%
X142092500Y-77142800D03*
%TO.P,U2,15,QA*%
%TO.N,a*%
X142092500Y-76492800D03*
%TO.P,U2,16,VCC*%
%TO.N,+5V*%
X142092500Y-75842800D03*
%TD*%
D28*
%TO.P,R2,1*%
%TO.N,Button_2*%
X183362600Y-105587800D03*
%TO.P,R2,2*%
%TO.N,GND*%
X185012600Y-105587800D03*
%TD*%
D33*
%TO.P,R1,1*%
%TO.N,Button_1*%
X157047600Y-118376800D03*
%TO.P,R1,2*%
%TO.N,GND*%
X155397600Y-118376800D03*
%TD*%
D19*
%TO.P,U5,1,VIN*%
%TO.N,+5V*%
X160615200Y-79634000D03*
%TO.P,U5,2,GND*%
%TO.N,GND*%
X160615200Y-80584000D03*
%TO.P,U5,3,ON/~{OFF}*%
%TO.N,+5V*%
X160615200Y-81534000D03*
%TO.P,U5,4,BP*%
%TO.N,Net-(U5-BP)*%
X162890200Y-81534000D03*
%TO.P,U5,5,VOUT*%
%TO.N,+3V3*%
X162890200Y-79634000D03*
%TD*%
D34*
%TO.P,D1,1,K*%
%TO.N,GND*%
X181412500Y-59470400D03*
%TO.P,D1,2,A*%
%TO.N,Net-(D1-A)*%
X179537500Y-59470400D03*
%TD*%
D27*
%TO.P,C10,1*%
%TO.N,/AREF*%
X145439800Y-87655400D03*
%TO.P,C10,2*%
%TO.N,GND*%
X146989800Y-87655400D03*
%TD*%
D35*
%TO.P,R13,1*%
%TO.N,+5V*%
X143497200Y-106082200D03*
%TO.P,R13,2*%
%TO.N,RST*%
X143497200Y-104432200D03*
%TD*%
D21*
%TO.P,J2,1,MISO*%
%TO.N,MISO*%
X134886600Y-103136800D03*
D22*
%TO.P,J2,2,VCC*%
%TO.N,+5V*%
X134886600Y-100596800D03*
%TO.P,J2,3,SCK*%
%TO.N,SCK*%
X132346600Y-103136800D03*
%TO.P,J2,4,MOSI*%
%TO.N,MOSI*%
X132346600Y-100596800D03*
%TO.P,J2,5,~{RST}*%
%TO.N,RST*%
X129806600Y-103136800D03*
%TO.P,J2,6,GND*%
%TO.N,GND*%
X129806600Y-100596800D03*
%TD*%
D36*
%TO.P,C4,1*%
%TO.N,+5V*%
X137490200Y-86238000D03*
%TO.P,C4,2*%
%TO.N,GND*%
X137490200Y-88138000D03*
%TD*%
D37*
%TO.P,LS1,1,1*%
%TO.N,Buzzer*%
X174421800Y-77063600D03*
D38*
%TO.P,LS1,2,2*%
%TO.N,GND*%
X182021800Y-77063600D03*
%TD*%
D39*
%TO.N,GND*%
X121475400Y-88658800D03*
X144551400Y-109042200D03*
X111315400Y-96355000D03*
X158369000Y-77393800D03*
X166674800Y-77139800D03*
X149428200Y-87630000D03*
X148846600Y-112179200D03*
X145846800Y-106934000D03*
X185813600Y-105549800D03*
X184162600Y-59470400D03*
X182257600Y-59470400D03*
X154622400Y-118376800D03*
X146586000Y-108674000D03*
X137490200Y-89016600D03*
X122542200Y-93738800D03*
X141008000Y-77813000D03*
X150952200Y-112166400D03*
X153555600Y-99936400D03*
X161663300Y-80581000D03*
X146240400Y-99911000D03*
X137452000Y-80403800D03*
X142294100Y-110217200D03*
X136855200Y-96774000D03*
X153555600Y-90665400D03*
X146989800Y-86842600D03*
X144640200Y-90716200D03*
X143865600Y-85318600D03*
X160705800Y-83235800D03*
X143243200Y-94551600D03*
X151041000Y-90716200D03*
X136804400Y-95046800D03*
X157988000Y-98780600D03*
X136829200Y-91846400D03*
%TO.N,Button_2*%
X150041700Y-103314600D03*
X148839500Y-103314600D03*
%TO.N,RED_LED*%
X170425500Y-74422000D03*
X168783000Y-74422000D03*
%TO.N,GREEN_LED*%
X190766600Y-95415200D03*
X190759842Y-97288042D03*
%TO.N,Net-(U1-b)*%
X144818000Y-55096900D03*
X144818000Y-53894700D03*
%TO.N,Net-(U1-f)*%
X135259100Y-47409200D03*
X134056900Y-47409200D03*
%TO.N,Dig4*%
X168820100Y-84277200D03*
X170434000Y-84277200D03*
X153698881Y-59194800D03*
X150973300Y-59194800D03*
%TO.N,Dig3*%
X137299600Y-121725400D03*
X149009591Y-42595676D03*
X151006645Y-40585100D03*
X137299600Y-123105400D03*
%TO.N,Dig2*%
X149294342Y-41180258D03*
X148444258Y-42030342D03*
%TO.N,Dig1*%
X153308996Y-82900396D03*
X154343000Y-83934400D03*
%TO.N,SH_CP*%
X141109600Y-85505000D03*
X141109600Y-86885000D03*
%TO.N,ST_CP*%
X148209000Y-88265000D03*
X148209000Y-92447600D03*
%TO.N,DS*%
X152686696Y-83522696D03*
X153662504Y-84498504D03*
%TO.N,MOSI*%
X140798042Y-98634242D03*
X140759942Y-100247142D03*
%TO.N,TX*%
X164528400Y-95491400D03*
X164528400Y-98314700D03*
%TO.N,RX*%
X162318600Y-95512500D03*
X162318600Y-98314700D03*
%TD*%
D40*
%TO.N,GND*%
X136855200Y-96774000D02*
X137668000Y-96774000D01*
X146240400Y-101013400D02*
X146240600Y-101013600D01*
X136829200Y-91846400D02*
X137667400Y-91846400D01*
X143865600Y-85318600D02*
X143865600Y-86105400D01*
X161663300Y-80581000D02*
X160618200Y-80581000D01*
X123558200Y-93738800D02*
X123570400Y-93751000D01*
X146240400Y-99911000D02*
X146240400Y-101013400D01*
X158369000Y-77393800D02*
X158369000Y-78206000D01*
X157175200Y-98780600D02*
X157988000Y-98780600D01*
X111323000Y-96347400D02*
X111315400Y-96355000D01*
X144640600Y-89613600D02*
X144640600Y-90715800D01*
X136804400Y-95046800D02*
X137668000Y-95046800D01*
X144551400Y-109042200D02*
X144551400Y-109854400D01*
X181412500Y-59470400D02*
X182257600Y-59470400D01*
X136378500Y-80403800D02*
X136367500Y-80392800D01*
X160618200Y-80581000D02*
X160615200Y-80584000D01*
X142140600Y-94513600D02*
X143205200Y-94513600D01*
X146989800Y-86842600D02*
X146989800Y-87655400D01*
X143865600Y-86105400D02*
X143840200Y-86130800D01*
X121475400Y-88658800D02*
X122239700Y-88658800D01*
X149428200Y-87630000D02*
X150202600Y-87630000D01*
X141439800Y-110223400D02*
X142287900Y-110223400D01*
X143205200Y-94513600D02*
X143243200Y-94551600D01*
X150952200Y-112166400D02*
X150952200Y-111379000D01*
X137490200Y-89016600D02*
X137490200Y-88138000D01*
X150202600Y-87630000D02*
X150228000Y-87604600D01*
X165735000Y-77139200D02*
X166674200Y-77139200D01*
X145846800Y-106934000D02*
X145846800Y-106095800D01*
X184162600Y-59470400D02*
X185028500Y-59470400D01*
X122239700Y-88658800D02*
X122315900Y-88582600D01*
X185012600Y-105587800D02*
X185775600Y-105587800D01*
X146596000Y-109613800D02*
X146596000Y-108684000D01*
X185775600Y-105587800D02*
X185813600Y-105549800D01*
X166674200Y-77139200D02*
X166674800Y-77139800D01*
X151040600Y-90715800D02*
X151041000Y-90716200D01*
X155397600Y-118376800D02*
X154622400Y-118376800D01*
X142092500Y-77792800D02*
X141028200Y-77792800D01*
X146596000Y-108684000D02*
X146586000Y-108674000D01*
X151040600Y-89613600D02*
X151040600Y-90715800D01*
X153540600Y-91313600D02*
X153540600Y-90680400D01*
X153540600Y-99921400D02*
X153555600Y-99936400D01*
X148796000Y-111213800D02*
X148796000Y-112128600D01*
X153540600Y-90680400D02*
X153555600Y-90665400D01*
X141028200Y-77792800D02*
X141008000Y-77813000D01*
X111323000Y-95755000D02*
X111323000Y-96347400D01*
X148796000Y-112128600D02*
X148846600Y-112179200D01*
X153540600Y-99313600D02*
X153540600Y-99921400D01*
X122542200Y-93738800D02*
X123558200Y-93738800D01*
X144640600Y-90715800D02*
X144640200Y-90716200D01*
X160705800Y-83235800D02*
X161518600Y-83235800D01*
X137452000Y-80403800D02*
X136378500Y-80403800D01*
X142287900Y-110223400D02*
X142294100Y-110217200D01*
D41*
%TO.N,Net-(D1-A)*%
X179535600Y-59472300D02*
X179537500Y-59470400D01*
X174863900Y-59472300D02*
X179535600Y-59472300D01*
%TO.N,Net-(D2-A)*%
X190635800Y-59470400D02*
X190639600Y-59474200D01*
X186903500Y-59470400D02*
X190635800Y-59470400D01*
%TO.N,Buzzer*%
X179616000Y-90411400D02*
X179616000Y-86728400D01*
X174421800Y-82524600D02*
X174421800Y-77063600D01*
X179616000Y-86728400D02*
X176466400Y-83578800D01*
X153540600Y-96113600D02*
X173913800Y-96113600D01*
X176466400Y-83578800D02*
X175476000Y-83578800D01*
X175476000Y-83578800D02*
X174421800Y-82524600D01*
X173913800Y-96113600D02*
X179616000Y-90411400D01*
%TO.N,Button_1*%
X160134200Y-116573400D02*
X160134200Y-117335400D01*
X155638400Y-116573400D02*
X153606400Y-114541400D01*
X159105600Y-118364000D02*
X157060400Y-118364000D01*
X160134200Y-117335400D02*
X159105600Y-118364000D01*
X157060400Y-118364000D02*
X157047600Y-118376800D01*
X149440600Y-104762200D02*
X149440600Y-101013600D01*
X153606400Y-108928000D02*
X149440600Y-104762200D01*
X160134200Y-116573400D02*
X155638400Y-116573400D01*
X153606400Y-114541400D02*
X153606400Y-108928000D01*
X157047600Y-118376800D02*
X157060800Y-118363600D01*
%TO.N,Button_2*%
X155282800Y-114719200D02*
X154012800Y-113449200D01*
X183400600Y-105625800D02*
X183362600Y-105587800D01*
X180098600Y-116522600D02*
X183400600Y-113220600D01*
X150041700Y-104677500D02*
X150041700Y-103314600D01*
X180098600Y-116522600D02*
X178422200Y-116522600D01*
X176898200Y-109004200D02*
X166484200Y-109004200D01*
X176898200Y-114998600D02*
X176898200Y-109004200D01*
X154012800Y-108648600D02*
X150041700Y-104677500D01*
X154012800Y-113449200D02*
X154012800Y-108648600D01*
X178422200Y-116522600D02*
X176898200Y-114998600D01*
X160769200Y-114719200D02*
X155282800Y-114719200D01*
X148640600Y-103115700D02*
X148640600Y-101013600D01*
X148839500Y-103314600D02*
X148640600Y-103115700D01*
X166484200Y-109004200D02*
X160769200Y-114719200D01*
X183400600Y-113220600D02*
X183400600Y-105625800D01*
%TO.N,RED_LED*%
X173297100Y-61297300D02*
X174863900Y-61297300D01*
X171323000Y-73524500D02*
X171323000Y-63271400D01*
X159829400Y-87578000D02*
X159829400Y-85610800D01*
X154493800Y-92913600D02*
X159829400Y-87578000D01*
X170425500Y-74422000D02*
X171323000Y-73524500D01*
X168402000Y-74803000D02*
X168783000Y-74422000D01*
X159829400Y-85610800D02*
X160616800Y-84823400D01*
X153540600Y-92913600D02*
X154493800Y-92913600D01*
X168402000Y-83642200D02*
X168402000Y-74803000D01*
X167220800Y-84823400D02*
X168402000Y-83642200D01*
X160616800Y-84823400D02*
X167220800Y-84823400D01*
X171323000Y-63271400D02*
X173297100Y-61297300D01*
%TO.N,GREEN_LED*%
X190334284Y-97713600D02*
X190759842Y-97288042D01*
X190766600Y-95415200D02*
X190766600Y-61426200D01*
X153540600Y-97713600D02*
X190334284Y-97713600D01*
X190766600Y-61426200D02*
X190639600Y-61299200D01*
%TO.N,a*%
X151574400Y-68770600D02*
X143878200Y-76466800D01*
X143878200Y-76466800D02*
X142118500Y-76466800D01*
X151574400Y-66484600D02*
X151574400Y-68770600D01*
X142118500Y-76466800D02*
X142092500Y-76492800D01*
%TO.N,Net-(U1-a)*%
X151574400Y-64659600D02*
X151574400Y-57670800D01*
X134658000Y-53073400D02*
X134658000Y-43904000D01*
X136080400Y-54495800D02*
X134658000Y-53073400D01*
X151574400Y-57670800D02*
X148399400Y-54495800D01*
X148399400Y-54495800D02*
X136080400Y-54495800D01*
%TO.N,b*%
X133997600Y-67678400D02*
X133997600Y-75222200D01*
X134618200Y-75842800D02*
X136367500Y-75842800D01*
X133997600Y-75222200D02*
X134618200Y-75842800D01*
X135191400Y-66484600D02*
X133997600Y-67678400D01*
%TO.N,Net-(U1-b)*%
X135915400Y-56362600D02*
X137185400Y-55092600D01*
X135191400Y-64659600D02*
X135191400Y-61480800D01*
X135191400Y-61480800D02*
X135915400Y-60756800D01*
X144813700Y-55092600D02*
X144818000Y-55096900D01*
X135915400Y-60756800D02*
X135915400Y-56362600D01*
X144818000Y-53894700D02*
X144818000Y-43904000D01*
X137185400Y-55092600D02*
X144813700Y-55092600D01*
%TO.N,c*%
X136367500Y-76492800D02*
X138238800Y-76492800D01*
X139738000Y-66510000D02*
X139712600Y-66484600D01*
X139738000Y-74993600D02*
X139738000Y-66510000D01*
X138238800Y-76492800D02*
X139738000Y-74993600D01*
%TO.N,Net-(U1-c)*%
X139712600Y-64659600D02*
X139738000Y-64634200D01*
X139738000Y-64634200D02*
X139738000Y-59144000D01*
%TO.N,d*%
X132727600Y-77076400D02*
X136301100Y-77076400D01*
X136301100Y-77076400D02*
X136367500Y-77142800D01*
X130949600Y-75298400D02*
X132727600Y-77076400D01*
X130949600Y-66484600D02*
X130949600Y-75298400D01*
%TO.N,Net-(U1-d)*%
X134277000Y-61099800D02*
X134658000Y-60718800D01*
X130949600Y-64659600D02*
X130949600Y-62725400D01*
X134658000Y-60718800D02*
X134658000Y-59144000D01*
X130949600Y-62725400D02*
X132575200Y-61099800D01*
X132575200Y-61099800D02*
X134277000Y-61099800D01*
%TO.N,e*%
X126377600Y-66484600D02*
X126377600Y-71296610D01*
X132873790Y-77792800D02*
X136367500Y-77792800D01*
X126377600Y-71296610D02*
X132873790Y-77792800D01*
%TO.N,Net-(U1-e)*%
X126377600Y-60439400D02*
X127673000Y-59144000D01*
X126377600Y-64659600D02*
X126377600Y-60439400D01*
X127673000Y-59144000D02*
X132118000Y-59144000D01*
%TO.N,f*%
X122110400Y-67599620D02*
X132953580Y-78442800D01*
X122110400Y-66484600D02*
X122110400Y-67599620D01*
X132953580Y-78442800D02*
X136367500Y-78442800D01*
%TO.N,Net-(U1-f)*%
X135259100Y-47409200D02*
X135648600Y-47409200D01*
X135648600Y-47409200D02*
X137198000Y-45859800D01*
X132984800Y-47406000D02*
X134053700Y-47406000D01*
X134053700Y-47406000D02*
X134056900Y-47409200D01*
X132905400Y-47485400D02*
X132984800Y-47406000D01*
X122110400Y-64659600D02*
X122110400Y-58280400D01*
X122110400Y-58280400D02*
X132905400Y-47485400D01*
X137198000Y-45859800D02*
X137198000Y-43904000D01*
%TO.N,g*%
X137022948Y-79092800D02*
X136367500Y-79092800D01*
X138404600Y-77711148D02*
X137022948Y-79092800D01*
X143675000Y-71666200D02*
X143675000Y-66484600D01*
X138404600Y-76936600D02*
X143675000Y-71666200D01*
X138404600Y-77711148D02*
X138404600Y-76936600D01*
%TO.N,Net-(U1-g)*%
X142278000Y-63262600D02*
X142278000Y-59144000D01*
X143675000Y-64659600D02*
X142278000Y-63262600D01*
%TO.N,dp*%
X136367500Y-79742800D02*
X137022948Y-79742800D01*
X138811000Y-77954748D02*
X138811000Y-77100410D01*
X138811000Y-77100410D02*
X147561200Y-68350210D01*
X137022948Y-79742800D02*
X138811000Y-77954748D01*
X147561200Y-68350210D02*
X147561200Y-66484600D01*
%TO.N,Net-(U1-DPX)*%
X147561200Y-64659600D02*
X147133200Y-64659600D01*
X147133200Y-64659600D02*
X143573400Y-61099800D01*
X143573400Y-57899400D02*
X143497200Y-57823200D01*
X143573400Y-61099800D02*
X143573400Y-57899400D01*
X138518800Y-57823200D02*
X137198000Y-59144000D01*
X143497200Y-57823200D02*
X138518800Y-57823200D01*
D40*
%TO.N,+5V*%
X142140600Y-92113600D02*
X143271600Y-92113600D01*
X144653000Y-104292600D02*
X145440600Y-103505000D01*
X144691000Y-93533000D02*
X144691000Y-96304200D01*
D42*
X128257200Y-88604200D02*
X128278800Y-88582600D01*
D40*
X134886600Y-100012400D02*
X134886600Y-100596800D01*
X143840200Y-87680800D02*
X142900400Y-87680800D01*
X142140600Y-96113600D02*
X140970000Y-96113600D01*
X145440600Y-98282600D02*
X145440600Y-101013600D01*
D42*
X120107700Y-84899600D02*
X127241200Y-84899600D01*
D40*
X158369000Y-79654400D02*
X157530800Y-79654400D01*
X142468600Y-86436200D02*
X142227400Y-86195000D01*
X143271600Y-96113600D02*
X144089300Y-96931300D01*
X171869000Y-114138600D02*
X174434200Y-111573400D01*
X120904000Y-99339400D02*
X122961400Y-97282000D01*
X155358200Y-98513600D02*
X153540600Y-98513600D01*
X139420600Y-81633528D02*
X139420600Y-86195000D01*
X140309600Y-96774000D02*
X139218000Y-96774000D01*
X169176600Y-122415400D02*
X171869000Y-119723000D01*
X139420600Y-86195000D02*
X139420600Y-89763600D01*
X140970000Y-96113600D02*
X140309600Y-96774000D01*
X133007100Y-98132900D02*
X134886600Y-100012400D01*
D42*
X124865800Y-93751000D02*
X124701200Y-93586400D01*
D40*
X142900400Y-87680800D02*
X142468600Y-87249000D01*
X133007100Y-98132900D02*
X138823700Y-98132900D01*
X140131800Y-91846400D02*
X139217400Y-91846400D01*
X144387200Y-106082200D02*
X144653000Y-105816400D01*
X139420600Y-77733528D02*
X139420600Y-81633528D01*
D42*
X128257200Y-90360600D02*
X128257200Y-88604200D01*
D40*
X155625200Y-98780600D02*
X155358200Y-98513600D01*
X140335000Y-91846400D02*
X140131800Y-91846400D01*
X151066400Y-91757600D02*
X151840600Y-90983400D01*
D42*
X124701200Y-91554400D02*
X125463200Y-90792400D01*
D40*
X145440600Y-103505000D02*
X145440600Y-104139600D01*
X171869000Y-119723000D02*
X171869000Y-114138600D01*
D42*
X125463200Y-90792400D02*
X127825400Y-90792400D01*
D40*
X194398600Y-111522600D02*
X189496600Y-116424600D01*
X142468600Y-87249000D02*
X142468600Y-86436200D01*
X142227400Y-86195000D02*
X139420600Y-86195000D01*
X143271600Y-92113600D02*
X144691000Y-93533000D01*
X151778000Y-87604600D02*
X151778000Y-89551000D01*
D42*
X127825400Y-90792400D02*
X128257200Y-90360600D01*
D40*
X153540600Y-98513600D02*
X145671600Y-98513600D01*
X145671600Y-98513600D02*
X145440600Y-98282600D01*
X151840600Y-90983400D02*
X151840600Y-89613600D01*
X189496600Y-121831200D02*
X188912400Y-122415400D01*
D42*
X128278800Y-88582600D02*
X128278800Y-86309200D01*
X128278800Y-86309200D02*
X128278800Y-85937200D01*
D40*
X144653000Y-105816400D02*
X144653000Y-104292600D01*
X141311328Y-79742800D02*
X139420600Y-81633528D01*
X142140600Y-96113600D02*
X143271600Y-96113600D01*
X143840200Y-87680800D02*
X143840200Y-89613200D01*
X160615200Y-81534000D02*
X155651200Y-81534000D01*
X143840600Y-90893115D02*
X144705085Y-91757600D01*
X132156200Y-97282000D02*
X133007100Y-98132900D01*
X141311328Y-75842800D02*
X139420600Y-77733528D01*
X169176600Y-122415400D02*
X125844200Y-122415400D01*
X145440600Y-104139600D02*
X145846800Y-104545800D01*
D42*
X128278800Y-85937200D02*
X127241200Y-84899600D01*
D40*
X145440600Y-101013600D02*
X145440600Y-103505000D01*
X140602200Y-92113600D02*
X140335000Y-91846400D01*
X139217400Y-97739200D02*
X139217400Y-96774600D01*
X139420600Y-86195000D02*
X137533200Y-86195000D01*
X144691000Y-96304200D02*
X144089300Y-96905900D01*
X137419000Y-86309200D02*
X128278800Y-86309200D01*
X125844200Y-122415400D02*
X120904000Y-117475200D01*
X151778000Y-85407200D02*
X151778000Y-87604600D01*
X139420600Y-89763600D02*
X140157200Y-90500200D01*
X144089300Y-96905900D02*
X144089300Y-96931300D01*
X144089300Y-96931300D02*
X145440600Y-98282600D01*
X142092500Y-75842800D02*
X141311328Y-75842800D01*
X158369000Y-79654400D02*
X160594800Y-79654400D01*
X138823700Y-98132900D02*
X139217400Y-97739200D01*
X189496600Y-116424600D02*
X189496600Y-121831200D01*
X142140600Y-92113600D02*
X140602200Y-92113600D01*
X188912400Y-122415400D02*
X169176600Y-122415400D01*
X140157200Y-91821000D02*
X140131800Y-91846400D01*
X155651200Y-81534000D02*
X151778000Y-85407200D01*
X143497200Y-106082200D02*
X144387200Y-106082200D01*
X122961400Y-97282000D02*
X132156200Y-97282000D01*
X120904000Y-117475200D02*
X120904000Y-99339400D01*
D42*
X125845400Y-93751000D02*
X124865800Y-93751000D01*
D40*
X160594800Y-79654400D02*
X160615200Y-79634000D01*
D42*
X124701200Y-93586400D02*
X124701200Y-91554400D01*
D40*
X157530800Y-79654400D02*
X155651200Y-81534000D01*
X142092500Y-79742800D02*
X141311328Y-79742800D01*
X143840200Y-89613200D02*
X143840600Y-89613600D01*
X144705085Y-91757600D02*
X151066400Y-91757600D01*
X139217400Y-96774600D02*
X139218000Y-96774000D01*
X143840600Y-89613600D02*
X143840600Y-90893115D01*
X140157200Y-90500200D02*
X140157200Y-91821000D01*
D41*
%TO.N,Dig4*%
X144868800Y-59194800D02*
X144818000Y-59144000D01*
X160232600Y-85864800D02*
X160870800Y-85226600D01*
X183426000Y-57721600D02*
X182460800Y-56756400D01*
X156137281Y-56756400D02*
X153698881Y-59194800D01*
X154493800Y-93713600D02*
X160232600Y-87974800D01*
X153540600Y-93713600D02*
X154493800Y-93713600D01*
X167387811Y-85226600D02*
X167870700Y-85226600D01*
X160870800Y-85226600D02*
X167387811Y-85226600D01*
X150973300Y-59194800D02*
X144868800Y-59194800D01*
X183426000Y-62649200D02*
X183426000Y-57721600D01*
X167870700Y-85226600D02*
X168820100Y-84277200D01*
X170434000Y-84277200D02*
X170434000Y-75641200D01*
X160232600Y-87974800D02*
X160232600Y-85864800D01*
X182460800Y-56756400D02*
X156137281Y-56756400D01*
X170434000Y-75641200D02*
X183426000Y-62649200D01*
%TO.N,Dig3*%
X137883800Y-107658000D02*
X137299600Y-108242200D01*
X137299600Y-123105400D02*
X137299600Y-125361600D01*
X143840600Y-101701200D02*
X137883800Y-107658000D01*
X148973325Y-42631942D02*
X143550058Y-42631942D01*
X151142145Y-40449600D02*
X151006645Y-40585100D01*
X197980200Y-123939400D02*
X197980200Y-53112790D01*
X197980200Y-53112790D02*
X185317010Y-40449600D01*
X143550058Y-42631942D02*
X142278000Y-43904000D01*
X149009591Y-42595676D02*
X148973325Y-42631942D01*
X185317010Y-40449600D02*
X151142145Y-40449600D01*
X138582400Y-126644400D02*
X195275200Y-126644400D01*
X137299600Y-125361600D02*
X138582400Y-126644400D01*
X143840600Y-101013600D02*
X143840600Y-101701200D01*
X195275200Y-126644400D02*
X197980200Y-123939400D01*
X137299600Y-108242200D02*
X137299600Y-121725400D01*
%TO.N,Dig2*%
X153540600Y-96913600D02*
X190284200Y-96913600D01*
X150660000Y-41186200D02*
X149300284Y-41186200D01*
X196684800Y-52387600D02*
X185483400Y-41186200D01*
X139986058Y-42030342D02*
X139738000Y-42278400D01*
X149300284Y-41186200D02*
X149294342Y-41180258D01*
X185483400Y-41186200D02*
X150660000Y-41186200D01*
X139738000Y-42278400D02*
X139738000Y-43904000D01*
X148444258Y-42030342D02*
X139986058Y-42030342D01*
X196684800Y-90513000D02*
X196684800Y-52387600D01*
X190284200Y-96913600D02*
X196684800Y-90513000D01*
%TO.N,Dig1*%
X153097781Y-45833781D02*
X148424800Y-41160800D01*
X134861200Y-41160800D02*
X132118000Y-43904000D01*
X148424800Y-41160800D02*
X134861200Y-41160800D01*
X154493800Y-92113600D02*
X156121000Y-90486400D01*
X156121000Y-84747200D02*
X155308200Y-83934400D01*
X155308200Y-83934400D02*
X154343000Y-83934400D01*
X153097781Y-82689181D02*
X153097781Y-45833781D01*
X153540600Y-92113600D02*
X154493800Y-92113600D01*
X153308996Y-82900396D02*
X153097781Y-82689181D01*
X156121000Y-90486400D02*
X156121000Y-84747200D01*
%TO.N,SH_CP*%
X141109600Y-91173400D02*
X141249800Y-91313600D01*
X142092500Y-79092800D02*
X142747948Y-79092800D01*
X143446400Y-79083000D02*
X143852800Y-79489400D01*
X141109600Y-86885000D02*
X141109600Y-91173400D01*
X143852800Y-80048200D02*
X143852800Y-82761800D01*
X143852800Y-82761800D02*
X141109600Y-85505000D01*
X142757748Y-79083000D02*
X143446400Y-79083000D01*
X142747948Y-79092800D02*
X142757748Y-79083000D01*
X143852800Y-79489400D02*
X143852800Y-80048200D01*
X141249800Y-91313600D02*
X142140600Y-91313600D01*
%TO.N,ST_CP*%
X148209000Y-92447600D02*
X148209000Y-94589800D01*
X148932800Y-95313600D02*
X153540600Y-95313600D01*
X148209000Y-94589800D02*
X148932800Y-95313600D01*
X148197619Y-88253619D02*
X148209000Y-88265000D01*
X142092500Y-78442800D02*
X143376410Y-78442800D01*
X148197619Y-83264009D02*
X148197619Y-88253619D01*
X143376410Y-78442800D02*
X148197619Y-83264009D01*
%TO.N,DS*%
X146306800Y-77142800D02*
X152686696Y-83522696D01*
X152587400Y-94513600D02*
X153540600Y-94513600D01*
X153725400Y-84561400D02*
X153725400Y-89505000D01*
X152361800Y-90868600D02*
X152361800Y-94288000D01*
X153725400Y-89505000D02*
X152361800Y-90868600D01*
X142092500Y-77142800D02*
X146306800Y-77142800D01*
X153662504Y-84498504D02*
X153725400Y-84561400D01*
X152361800Y-94288000D02*
X152587400Y-94513600D01*
%TO.N,XTAL2*%
X147499200Y-111213800D02*
X147597600Y-111115400D01*
X144742000Y-111213800D02*
X146596000Y-111213800D01*
X147597600Y-107211800D02*
X147040600Y-106654800D01*
X144551400Y-111404400D02*
X144742000Y-111213800D01*
X147040600Y-106654800D02*
X147040600Y-101013600D01*
X146596000Y-111213800D02*
X147499200Y-111213800D01*
X147597600Y-111115400D02*
X147597600Y-107211800D01*
%TO.N,XTAL1*%
X147840600Y-106642000D02*
X148796000Y-107597400D01*
X150952200Y-109829000D02*
X150737000Y-109613800D01*
X148796000Y-107597400D02*
X148796000Y-109613800D01*
X150737000Y-109613800D02*
X148796000Y-109613800D01*
X147840600Y-101013600D02*
X147840600Y-106642000D01*
%TO.N,RST*%
X130909589Y-105470400D02*
X137755600Y-105470400D01*
X144183000Y-99403000D02*
X144640600Y-99860600D01*
X143823000Y-99403000D02*
X144183000Y-99403000D01*
X130909589Y-105470400D02*
X129806600Y-104367411D01*
X141439800Y-106523400D02*
X141439800Y-106489600D01*
X144640600Y-103288800D02*
X144640600Y-101013600D01*
X143497200Y-104432200D02*
X144640600Y-103288800D01*
X141439800Y-106489600D02*
X143497200Y-104432200D01*
X129806600Y-104367411D02*
X129806600Y-103136800D01*
X144640600Y-99860600D02*
X144640600Y-101013600D01*
X137755600Y-105470400D02*
X143823000Y-99403000D01*
%TO.N,/AREF*%
X145439800Y-89612800D02*
X145440600Y-89613600D01*
X145439800Y-87655400D02*
X145439800Y-89612800D01*
%TO.N,/UCAP*%
X142140600Y-95313600D02*
X140906600Y-95313600D01*
X140906600Y-95313600D02*
X140639800Y-95046800D01*
X140639800Y-95046800D02*
X139218000Y-95046800D01*
%TO.N,Net-(U5-BP)*%
X163068600Y-81712400D02*
X162890200Y-81534000D01*
X163068600Y-83235800D02*
X163068600Y-81712400D01*
D40*
%TO.N,+3V3*%
X162890200Y-79634000D02*
X164790200Y-79634000D01*
X164084000Y-78308200D02*
X164084000Y-74549000D01*
X164084000Y-74549000D02*
X164084000Y-71755000D01*
X162153600Y-74549000D02*
X159715200Y-74549000D01*
X164790200Y-79634000D02*
X165735000Y-78689200D01*
X159715200Y-74549000D02*
X159004000Y-73837800D01*
X162153600Y-74549000D02*
X164084000Y-74549000D01*
X167106600Y-71473700D02*
X164365300Y-71473700D01*
X159004000Y-73837800D02*
X159004000Y-71755000D01*
X165735000Y-78689200D02*
X164465000Y-78689200D01*
X164365300Y-71473700D02*
X164084000Y-71755000D01*
X161544000Y-71755000D02*
X161544000Y-73939400D01*
X164465000Y-78689200D02*
X164084000Y-78308200D01*
X161544000Y-73939400D02*
X162153600Y-74549000D01*
D41*
%TO.N,Net-(D3-A)*%
X124190900Y-88582600D02*
X126453800Y-88582600D01*
D42*
%TO.N,Net-(J1-VBUS)*%
X113703000Y-85153600D02*
X114185600Y-84671000D01*
X113703000Y-91148000D02*
X113703000Y-85153600D01*
X115604100Y-84671000D02*
X115832700Y-84899600D01*
X114185600Y-84671000D02*
X115604100Y-84671000D01*
X111323000Y-92555000D02*
X112296000Y-92555000D01*
X112296000Y-92555000D02*
X113703000Y-91148000D01*
D41*
%TO.N,Net-(J1-D-)*%
X113223200Y-93355000D02*
X113728400Y-92849800D01*
X113728400Y-92849800D02*
X116055000Y-92849800D01*
X116055000Y-92849800D02*
X116077400Y-92872200D01*
X111323000Y-93355000D02*
X113223200Y-93355000D01*
%TO.N,Net-(J1-D+)*%
X116055000Y-94526200D02*
X116077400Y-94548600D01*
X113474400Y-94526200D02*
X116055000Y-94526200D01*
X113103200Y-94155000D02*
X113474400Y-94526200D01*
X111323000Y-94155000D02*
X113103200Y-94155000D01*
%TO.N,unconnected-(J1-Shield-Pad6)*%
X111223000Y-89705000D02*
X105773000Y-89705000D01*
X105773000Y-98605000D02*
X111223000Y-98605000D01*
X105773000Y-98605000D02*
X105773000Y-89705000D01*
%TO.N,MISO*%
X137020200Y-103136800D02*
X137020200Y-103136093D01*
X137020200Y-103136800D02*
X136131200Y-103136800D01*
X136131200Y-103136800D02*
X134886600Y-103136800D01*
X137020200Y-103136093D02*
X140842693Y-99313600D01*
X140842693Y-99313600D02*
X142140600Y-99313600D01*
%TO.N,SCK*%
X133498200Y-101985200D02*
X132346600Y-103136800D01*
X140868600Y-97713600D02*
X142140600Y-97713600D01*
X136597000Y-101985200D02*
X140868600Y-97713600D01*
X136597000Y-101985200D02*
X133498200Y-101985200D01*
%TO.N,MOSI*%
X131076600Y-105067200D02*
X131076600Y-101866800D01*
X140759942Y-100247142D02*
X140728600Y-100215800D01*
X140728600Y-100190400D02*
X135851800Y-105067200D01*
X140728600Y-100215800D02*
X140728600Y-100190400D01*
X135851800Y-105067200D02*
X131076600Y-105067200D01*
X131076600Y-101866800D02*
X132346600Y-100596800D01*
X140798042Y-98634242D02*
X142019958Y-98634242D01*
X142019958Y-98634242D02*
X142140600Y-98513600D01*
%TO.N,TX*%
X156464000Y-71755000D02*
X154584400Y-71755000D01*
X164528400Y-99846210D02*
X161190211Y-103184400D01*
X169824400Y-66167000D02*
X169824400Y-90576400D01*
X150240600Y-102093810D02*
X150240600Y-101013600D01*
X153949400Y-71120000D02*
X153949400Y-66497200D01*
X155498800Y-64947800D02*
X168605200Y-64947800D01*
X164528400Y-98314700D02*
X164528400Y-99846210D01*
X154584400Y-71755000D02*
X153949400Y-71120000D01*
X164909400Y-95491400D02*
X164528400Y-95491400D01*
X169824400Y-90576400D02*
X164909400Y-95491400D01*
X151331190Y-103184400D02*
X150240600Y-102093810D01*
X153949400Y-66497200D02*
X155498800Y-64947800D01*
X168605200Y-64947800D02*
X169824400Y-66167000D01*
X161190211Y-103184400D02*
X151331190Y-103184400D01*
%TO.N,Net-(J3-Pin_5)*%
X166268400Y-70485000D02*
X162814000Y-70485000D01*
X167104700Y-69648700D02*
X166268400Y-70485000D01*
X162814000Y-70485000D02*
X161544000Y-69215000D01*
X167106600Y-69648700D02*
X167104700Y-69648700D01*
%TO.N,RX*%
X151040600Y-102323600D02*
X151040600Y-101013600D01*
X169421200Y-89404800D02*
X164896800Y-93929200D01*
X169421200Y-66475000D02*
X169421200Y-89404800D01*
X164896800Y-93929200D02*
X162991800Y-93929200D01*
X165557200Y-65351000D02*
X168297200Y-65351000D01*
X162991800Y-93929200D02*
X162318600Y-94602400D01*
X168297200Y-65351000D02*
X169421200Y-66475000D01*
X162318600Y-98314700D02*
X162318600Y-101485800D01*
X151498200Y-102781200D02*
X151040600Y-102323600D01*
X162318600Y-94602400D02*
X162318600Y-95512500D01*
X164084000Y-66824200D02*
X165557200Y-65351000D01*
X161023200Y-102781200D02*
X151498200Y-102781200D01*
X164084000Y-69215000D02*
X164084000Y-66824200D01*
X162318600Y-101485800D02*
X161023200Y-102781200D01*
%TO.N,USB_CONN_D+*%
X123418000Y-94548600D02*
X123570400Y-94701000D01*
X117727400Y-94548600D02*
X123418000Y-94548600D01*
%TO.N,USB_CONN_D-*%
X123499200Y-92872200D02*
X123570400Y-92801000D01*
X117727400Y-92872200D02*
X123499200Y-92872200D01*
%TO.N,USB_D-*%
X125958000Y-92913600D02*
X142140600Y-92913600D01*
X125845400Y-92801000D02*
X125958000Y-92913600D01*
%TO.N,USB_D+*%
X125845400Y-94701000D02*
X127295000Y-94701000D01*
X128282400Y-93713600D02*
X142140600Y-93713600D01*
X127295000Y-94701000D02*
X128282400Y-93713600D01*
%TD*%
M02*
