M48
; DRILL file {KiCad 7.0.1} date Tue Apr 11 21:20:56 2023
; FORMAT={-:-/ absolute / inch / decimal}
; #@! TF.CreationDate,2023-04-11T21:20:56-06:00
; #@! TF.GenerationSoftware,Kicad,Pcbnew,7.0.1
; #@! TF.FileFunction,Plated,1,2,PTH
FMAT,2
INCH
; #@! TA.AperFunction,Plated,PTH,ViaDrill
T1C0.0157
; #@! TA.AperFunction,Plated,PTH,ComponentDrill
T2C0.0315
; #@! TA.AperFunction,Plated,PTH,ComponentDrill
T3C0.0354
; #@! TA.AperFunction,Plated,PTH,ComponentDrill
T4C0.0394
; #@! TA.AperFunction,Plated,PTH,ComponentDrill
T5C0.0512
%
G90
G05
T1
X4.69Y-3.19
X4.69Y-3.27
X5.37Y-2.27
X5.38Y-2.22
X5.38Y-2.47
X5.41Y-2.19
X5.47Y-2.25
X5.47Y-2.31
X5.47Y-2.37
X5.5Y-2.4
X5.5Y-2.47
X5.53Y-2.37
X5.56Y-2.34
X5.57Y-2.47
X5.59Y-2.31
X5.6Y-2.44
X5.62Y-2.27
X5.63Y-2.41
X5.66Y-2.38
X5.67Y-2.22
X5.69Y-2.35
X5.75Y-2.3
X5.837Y-3.707
X5.837Y-3.787
X5.85Y-2.9
X5.87Y-2.95
X5.9Y-2.24
X5.95Y-2.19
X5.9508Y-3.08
X5.9754Y-3.36
X5.9754Y-3.5
X6.02Y-2.07
X6.03Y-3.36
X6.03Y-3.5
X6.05Y-2.04
X6.06Y-2.8
X6.06Y-2.95
X6.06Y-3.08
X6.08Y-2.02
X6.12Y-2.06
X6.12Y-2.11
X6.12Y-2.16
X6.55Y-3.71
X6.55Y-3.78
X7.19Y-2.59
X7.19Y-3.02
X7.23Y-3.02
X7.24Y-2.62
X7.2703Y-3.02
X7.28Y-2.66
X7.49Y-3.29
X7.49Y-3.38
X7.5423Y-3.29
X7.5423Y-3.38
T2
X4.137Y-3.537
X4.537Y-3.537
X4.837Y-3.537
X5.237Y-3.537
X6.29Y-2.8
X6.29Y-2.93
X6.29Y-3.08
X6.29Y-3.22
X6.29Y-3.36
X6.29Y-3.5
X6.29Y-3.63
X6.69Y-2.8
X6.69Y-2.93
X6.69Y-3.08
X6.69Y-3.22
X6.69Y-3.36
X6.69Y-3.5
X6.69Y-3.63
X6.737Y-3.837
X7.037Y-2.037
X7.037Y-2.437
X7.0866Y-2.8874
X7.0866Y-2.9874
X7.0866Y-3.0874
X7.0866Y-3.1874
X7.0866Y-3.2874
X7.0866Y-3.3874
X7.0866Y-3.4874
X7.0866Y-3.5874
X7.137Y-3.837
X7.237Y-2.037
X7.237Y-2.437
X7.3866Y-2.8874
X7.3866Y-2.9874
X7.3866Y-3.0874
X7.3866Y-3.1874
X7.3866Y-3.2874
X7.3866Y-3.3874
X7.3866Y-3.4874
X7.3866Y-3.5874
T3
X6.737Y-2.337
X6.837Y-2.337
X7.437Y-2.337
X7.537Y-2.337
T4
X4.677Y-1.937
X4.777Y-1.937
X4.787Y-2.1314
X4.787Y-2.7314
X4.877Y-1.937
X4.887Y-2.1314
X4.887Y-2.7314
X4.977Y-1.937
X4.987Y-2.1314
X4.987Y-2.7314
X5.037Y-3.837
X5.077Y-1.937
X5.087Y-2.1314
X5.087Y-2.7314
X5.137Y-3.837
X5.177Y-1.937
X5.187Y-2.1314
X5.187Y-2.7314
X5.237Y-3.837
X5.277Y-1.937
X5.287Y-2.1314
X5.287Y-2.7314
X5.337Y-3.837
X5.377Y-1.937
X5.437Y-3.837
X5.477Y-1.937
X5.537Y-3.837
X5.577Y-1.937
X5.637Y-3.837
X5.737Y-1.937
X5.737Y-3.837
X5.837Y-1.937
X5.937Y-1.937
X5.937Y-3.837
X6.037Y-1.937
X6.037Y-3.837
X6.137Y-1.937
X6.137Y-3.837
X6.1874Y-2.337
X6.237Y-1.937
X6.237Y-3.837
X6.337Y-1.937
X6.337Y-3.837
X6.437Y-1.937
X6.437Y-3.837
X6.4866Y-2.337
T5
X4.0906Y-3.0386
X4.0906Y-3.2354
X4.5827Y-3.0386
X4.5827Y-3.2354
X4.7906Y-3.0386
X4.7906Y-3.2354
X5.2827Y-3.0386
X5.2827Y-3.2354
T0
M30
