%TF.GenerationSoftware,KiCad,Pcbnew,7.0.1*%
%TF.CreationDate,2023-04-11T21:22:03-06:00*%
%TF.ProjectId,Phase_A_UnoShield,50686173-655f-4415-9f55-6e6f53686965,rev?*%
%TF.SameCoordinates,Original*%
%TF.FileFunction,Copper,L1,Top*%
%TF.FilePolarity,Positive*%
%FSLAX46Y46*%
G04 Gerber Fmt 4.6, Leading zero omitted, Abs format (unit mm)*
G04 Created by KiCad (PCBNEW 7.0.1) date 2023-04-11 21:22:03*
%MOMM*%
%LPD*%
G01*
G04 APERTURE LIST*
%TA.AperFunction,ComponentPad*%
%ADD10R,1.700000X1.700000*%
%TD*%
%TA.AperFunction,ComponentPad*%
%ADD11O,1.700000X1.700000*%
%TD*%
%TA.AperFunction,ComponentPad*%
%ADD12R,1.800000X1.800000*%
%TD*%
%TA.AperFunction,ComponentPad*%
%ADD13C,1.800000*%
%TD*%
%TA.AperFunction,ComponentPad*%
%ADD14R,2.400000X1.600000*%
%TD*%
%TA.AperFunction,ComponentPad*%
%ADD15O,2.400000X1.600000*%
%TD*%
%TA.AperFunction,ComponentPad*%
%ADD16C,1.600000*%
%TD*%
%TA.AperFunction,ComponentPad*%
%ADD17O,1.600000X1.600000*%
%TD*%
%TA.AperFunction,ComponentPad*%
%ADD18R,2.000000X2.000000*%
%TD*%
%TA.AperFunction,ComponentPad*%
%ADD19C,2.000000*%
%TD*%
%TA.AperFunction,ComponentPad*%
%ADD20O,3.048000X1.850000*%
%TD*%
%TA.AperFunction,ComponentPad*%
%ADD21R,1.500000X1.500000*%
%TD*%
%TA.AperFunction,ComponentPad*%
%ADD22C,1.500000*%
%TD*%
%TA.AperFunction,ViaPad*%
%ADD23C,0.600000*%
%TD*%
%TA.AperFunction,Conductor*%
%ADD24C,0.508000*%
%TD*%
%TA.AperFunction,Conductor*%
%ADD25C,0.203200*%
%TD*%
%TA.AperFunction,Conductor*%
%ADD26C,0.250000*%
%TD*%
G04 APERTURE END LIST*
D10*
%TO.P,J1,1,Pin_1*%
%TO.N,unconnected-(J1-Pin_1-Pad1)*%
X127940000Y-97460000D03*
D11*
%TO.P,J1,2,Pin_2*%
%TO.N,/IOREF*%
X130480000Y-97460000D03*
%TO.P,J1,3,Pin_3*%
%TO.N,/~{RESET}*%
X133020000Y-97460000D03*
%TO.P,J1,4,Pin_4*%
%TO.N,+3V3*%
X135560000Y-97460000D03*
%TO.P,J1,5,Pin_5*%
%TO.N,+5V*%
X138100000Y-97460000D03*
%TO.P,J1,6,Pin_6*%
%TO.N,GND*%
X140640000Y-97460000D03*
%TO.P,J1,7,Pin_7*%
X143180000Y-97460000D03*
%TO.P,J1,8,Pin_8*%
%TO.N,VCC*%
X145720000Y-97460000D03*
%TD*%
D10*
%TO.P,J3,1,Pin_1*%
%TO.N,/A0*%
X150800000Y-97460000D03*
D11*
%TO.P,J3,2,Pin_2*%
%TO.N,/A1*%
X153340000Y-97460000D03*
%TO.P,J3,3,Pin_3*%
%TO.N,/A2*%
X155880000Y-97460000D03*
%TO.P,J3,4,Pin_4*%
%TO.N,/A3*%
X158420000Y-97460000D03*
%TO.P,J3,5,Pin_5*%
%TO.N,/SDA{slash}A4*%
X160960000Y-97460000D03*
%TO.P,J3,6,Pin_6*%
%TO.N,/SCL{slash}A5*%
X163500000Y-97460000D03*
%TD*%
D10*
%TO.P,J2,1,Pin_1*%
%TO.N,unconnected-(J2-Pin_1-Pad1)*%
X118796000Y-49200000D03*
D11*
%TO.P,J2,2,Pin_2*%
%TO.N,unconnected-(J2-Pin_2-Pad2)*%
X121336000Y-49200000D03*
%TO.P,J2,3,Pin_3*%
%TO.N,unconnected-(J2-Pin_3-Pad3)*%
X123876000Y-49200000D03*
%TO.P,J2,4,Pin_4*%
%TO.N,GND*%
X126416000Y-49200000D03*
%TO.P,J2,5,Pin_5*%
%TO.N,Dig1*%
X128956000Y-49200000D03*
%TO.P,J2,6,Pin_6*%
%TO.N,Dig2*%
X131496000Y-49200000D03*
%TO.P,J2,7,Pin_7*%
%TO.N,Dig3*%
X134036000Y-49200000D03*
%TO.P,J2,8,Pin_8*%
%TO.N,Dig4*%
X136576000Y-49200000D03*
%TO.P,J2,9,Pin_9*%
%TO.N,DS*%
X139116000Y-49200000D03*
%TO.P,J2,10,Pin_10*%
%TO.N,ST_CP*%
X141656000Y-49200000D03*
%TD*%
D10*
%TO.P,J4,1,Pin_1*%
%TO.N,SH_CP*%
X145720000Y-49200000D03*
D11*
%TO.P,J4,2,Pin_2*%
%TO.N,Buzzer*%
X148260000Y-49200000D03*
%TO.P,J4,3,Pin_3*%
%TO.N,RED_LED*%
X150800000Y-49200000D03*
%TO.P,J4,4,Pin_4*%
%TO.N,GREEN_LED*%
X153340000Y-49200000D03*
%TO.P,J4,5,Pin_5*%
%TO.N,Button_2*%
X155880000Y-49200000D03*
%TO.P,J4,6,Pin_6*%
%TO.N,Button_1*%
X158420000Y-49200000D03*
%TO.P,J4,7,Pin_7*%
%TO.N,/TX{slash}1*%
X160960000Y-49200000D03*
%TO.P,J4,8,Pin_8*%
%TO.N,/RX{slash}0*%
X163500000Y-49200000D03*
%TD*%
D12*
%TO.P,D2,1,K*%
%TO.N,GND*%
X188900000Y-59360000D03*
D13*
%TO.P,D2,2,A*%
%TO.N,Net-(D2-A)*%
X191440000Y-59360000D03*
%TD*%
D14*
%TO.P,U2,1,QB*%
%TO.N,b*%
X187620000Y-91120000D03*
D15*
%TO.P,U2,2,QC*%
%TO.N,c*%
X187620000Y-88580000D03*
%TO.P,U2,3,QD*%
%TO.N,d*%
X187620000Y-86040000D03*
%TO.P,U2,4,QE*%
%TO.N,e*%
X187620000Y-83500000D03*
%TO.P,U2,5,QF*%
%TO.N,f*%
X187620000Y-80960000D03*
%TO.P,U2,6,QG*%
%TO.N,g*%
X187620000Y-78420000D03*
%TO.P,U2,7,QH*%
%TO.N,dp*%
X187620000Y-75880000D03*
%TO.P,U2,8,GND*%
%TO.N,GND*%
X187620000Y-73340000D03*
%TO.P,U2,9,QH'*%
%TO.N,unconnected-(U2-QH'-Pad9)*%
X180000000Y-73340000D03*
%TO.P,U2,10,~{SRCLR}*%
%TO.N,+5V*%
X180000000Y-75880000D03*
%TO.P,U2,11,SRCLK*%
%TO.N,SH_CP*%
X180000000Y-78420000D03*
%TO.P,U2,12,RCLK*%
%TO.N,ST_CP*%
X180000000Y-80960000D03*
%TO.P,U2,13,~{OE}*%
%TO.N,GND*%
X180000000Y-83500000D03*
%TO.P,U2,14,SER*%
%TO.N,DS*%
X180000000Y-86040000D03*
%TO.P,U2,15,QA*%
%TO.N,a*%
X180000000Y-88580000D03*
%TO.P,U2,16,VCC*%
%TO.N,+5V*%
X180000000Y-91120000D03*
%TD*%
D16*
%TO.P,R8,1*%
%TO.N,d*%
X169926000Y-71120000D03*
D17*
%TO.P,R8,2*%
%TO.N,Net-(U1-d)*%
X159766000Y-71120000D03*
%TD*%
D16*
%TO.P,R5,1*%
%TO.N,a*%
X169926000Y-92202000D03*
D17*
%TO.P,R5,2*%
%TO.N,Net-(U1-a)*%
X159766000Y-92202000D03*
%TD*%
D12*
%TO.P,D1,1,K*%
%TO.N,GND*%
X171120000Y-59360000D03*
D13*
%TO.P,D1,2,A*%
%TO.N,Net-(D1-A)*%
X173660000Y-59360000D03*
%TD*%
D16*
%TO.P,R1,1*%
%TO.N,Button_1*%
X105080000Y-89840000D03*
D17*
%TO.P,R1,2*%
%TO.N,GND*%
X115240000Y-89840000D03*
%TD*%
D18*
%TO.P,LS1,1,1*%
%TO.N,Buzzer*%
X157160000Y-59360000D03*
D19*
%TO.P,LS1,2,2*%
%TO.N,GND*%
X164760000Y-59360000D03*
%TD*%
D16*
%TO.P,R2,1*%
%TO.N,Button_2*%
X122860000Y-89840000D03*
D17*
%TO.P,R2,2*%
%TO.N,GND*%
X133020000Y-89840000D03*
%TD*%
D20*
%TO.P,SW1,1,1*%
%TO.N,+5V*%
X116400000Y-82180000D03*
X103900000Y-82180000D03*
%TO.P,SW1,2,2*%
%TO.N,Button_1*%
X116400000Y-77180000D03*
X103900000Y-77180000D03*
%TD*%
%TO.P,SW2,1,1*%
%TO.N,+5V*%
X134180000Y-82180000D03*
X121680000Y-82180000D03*
%TO.P,SW2,2,2*%
%TO.N,Button_2*%
X134180000Y-77180000D03*
X121680000Y-77180000D03*
%TD*%
D21*
%TO.P,U1,1,e*%
%TO.N,Net-(U1-e)*%
X121590000Y-69377500D03*
D22*
%TO.P,U1,2,d*%
%TO.N,Net-(U1-d)*%
X124130000Y-69377500D03*
%TO.P,U1,3,DPX*%
%TO.N,Net-(U1-DPX)*%
X126670000Y-69377500D03*
%TO.P,U1,4,c*%
%TO.N,Net-(U1-c)*%
X129210000Y-69377500D03*
%TO.P,U1,5,g*%
%TO.N,Net-(U1-g)*%
X131750000Y-69377500D03*
%TO.P,U1,6,CA4*%
%TO.N,Dig4*%
X134290000Y-69377500D03*
%TO.P,U1,7,b*%
%TO.N,Net-(U1-b)*%
X134290000Y-54137500D03*
%TO.P,U1,8,CA3*%
%TO.N,Dig3*%
X131750000Y-54137500D03*
%TO.P,U1,9,CA2*%
%TO.N,Dig2*%
X129210000Y-54137500D03*
%TO.P,U1,10,f*%
%TO.N,Net-(U1-f)*%
X126670000Y-54137500D03*
%TO.P,U1,11,a*%
%TO.N,Net-(U1-a)*%
X124130000Y-54137500D03*
%TO.P,U1,12,CA1*%
%TO.N,Dig1*%
X121590000Y-54137500D03*
%TD*%
D16*
%TO.P,R12,1*%
%TO.N,dp*%
X169926000Y-88900000D03*
D17*
%TO.P,R12,2*%
%TO.N,Net-(U1-DPX)*%
X159766000Y-88900000D03*
%TD*%
D16*
%TO.P,R10,1*%
%TO.N,f*%
X169926000Y-81788000D03*
D17*
%TO.P,R10,2*%
%TO.N,Net-(U1-f)*%
X159766000Y-81788000D03*
%TD*%
D16*
%TO.P,R9,1*%
%TO.N,e*%
X169926000Y-74422000D03*
D17*
%TO.P,R9,2*%
%TO.N,Net-(U1-e)*%
X159766000Y-74422000D03*
%TD*%
D16*
%TO.P,R6,1*%
%TO.N,b*%
X181280000Y-97460000D03*
D17*
%TO.P,R6,2*%
%TO.N,Net-(U1-b)*%
X171120000Y-97460000D03*
%TD*%
D16*
%TO.P,R3,1*%
%TO.N,RED_LED*%
X178740000Y-51740000D03*
D17*
%TO.P,R3,2*%
%TO.N,Net-(D1-A)*%
X178740000Y-61900000D03*
%TD*%
D16*
%TO.P,R7,1*%
%TO.N,c*%
X169926000Y-78232000D03*
D17*
%TO.P,R7,2*%
%TO.N,Net-(U1-c)*%
X159766000Y-78232000D03*
%TD*%
D16*
%TO.P,R11,1*%
%TO.N,g*%
X169926000Y-85344000D03*
D17*
%TO.P,R11,2*%
%TO.N,Net-(U1-g)*%
X159766000Y-85344000D03*
%TD*%
D16*
%TO.P,R4,1*%
%TO.N,GREEN_LED*%
X183820000Y-51740000D03*
D17*
%TO.P,R4,2*%
%TO.N,Net-(D2-A)*%
X183820000Y-61900000D03*
%TD*%
D23*
%TO.N,DS*%
X184666500Y-76708000D03*
X143764000Y-60452000D03*
X141986000Y-58674000D03*
X184912000Y-67564000D03*
%TO.N,ST_CP*%
X183642000Y-76708000D03*
X183896000Y-66548000D03*
X142748000Y-57658000D03*
X144526000Y-59690000D03*
%TO.N,SH_CP*%
X144018000Y-56388000D03*
X182626000Y-65786000D03*
X146050000Y-58420000D03*
X182626000Y-76708000D03*
%TO.N,RED_LED*%
X152908000Y-52578000D03*
X155448000Y-54864000D03*
%TO.N,GREEN_LED*%
X155448000Y-53594000D03*
X153670000Y-51816000D03*
%TO.N,Button_2*%
X148260000Y-96190000D03*
X155448000Y-52324000D03*
X154432000Y-51308000D03*
X119126000Y-83058000D03*
X148260000Y-94158000D03*
X119126000Y-81026000D03*
%TO.N,Button_1*%
X151130000Y-55626000D03*
X149860000Y-56896000D03*
X136652000Y-62738000D03*
X139700000Y-62738000D03*
%TO.N,Net-(U1-a)*%
X136398000Y-57658000D03*
X141478000Y-62738000D03*
X139700000Y-60960000D03*
X138938000Y-60198000D03*
%TO.N,Net-(U1-b)*%
X166370000Y-96012000D03*
X166370000Y-94234000D03*
X138938000Y-57150000D03*
X143002000Y-61214000D03*
X141224000Y-59436000D03*
X137414000Y-55626000D03*
%TO.N,Net-(U1-c)*%
X153924000Y-78232000D03*
X151151000Y-78232000D03*
%TO.N,d*%
X190246000Y-85852000D03*
X191574500Y-85852000D03*
%TO.N,Net-(U1-d)*%
X153924000Y-71120000D03*
X148590000Y-73660000D03*
%TO.N,e*%
X190246000Y-83566000D03*
X191574500Y-83566000D03*
%TO.N,Net-(U1-e)*%
X153924000Y-74930000D03*
X149098000Y-74930000D03*
%TO.N,Net-(U1-f)*%
X142240000Y-61976000D03*
X136652000Y-56388000D03*
X138938000Y-58674000D03*
X140462000Y-60198000D03*
%TO.N,Net-(U1-g)*%
X151775500Y-85344000D03*
X153162000Y-85344000D03*
%TO.N,Net-(U1-DPX)*%
X151775500Y-88900000D03*
X153162000Y-88900000D03*
%TD*%
D24*
%TO.N,+5V*%
X138100000Y-97460000D02*
X138100000Y-85268000D01*
X185420000Y-85700000D02*
X185420000Y-75946000D01*
X138100000Y-85268000D02*
X135012000Y-82180000D01*
X176132000Y-94988000D02*
X180000000Y-91120000D01*
X135012000Y-82180000D02*
X134180000Y-82180000D01*
D25*
X134180000Y-82180000D02*
X135520000Y-82180000D01*
X102580000Y-82180000D02*
X103900000Y-82180000D01*
X134180000Y-82180000D02*
X121680000Y-82180000D01*
D24*
X138100000Y-97460000D02*
X140572000Y-94988000D01*
D25*
X102540000Y-82220000D02*
X102580000Y-82180000D01*
D24*
X116400000Y-82180000D02*
X121680000Y-82180000D01*
X180000000Y-91120000D02*
X185420000Y-85700000D01*
X185420000Y-75946000D02*
X185354000Y-75880000D01*
X140572000Y-94988000D02*
X176132000Y-94988000D01*
X116400000Y-82180000D02*
X103900000Y-82180000D01*
X185354000Y-75880000D02*
X180000000Y-75880000D01*
D25*
%TO.N,Net-(D1-A)*%
X173660000Y-61900000D02*
X173660000Y-59360000D01*
X178740000Y-61900000D02*
X173660000Y-61900000D01*
%TO.N,Net-(D2-A)*%
X191440000Y-61900000D02*
X191440000Y-59360000D01*
X183820000Y-61900000D02*
X191440000Y-61900000D01*
%TO.N,Dig1*%
X128956000Y-49200000D02*
X126416000Y-51740000D01*
X122860000Y-51740000D02*
X121590000Y-53010000D01*
X121590000Y-53010000D02*
X121590000Y-54137500D01*
X126416000Y-51740000D02*
X122860000Y-51740000D01*
%TO.N,Dig2*%
X129210000Y-51486000D02*
X129210000Y-54137500D01*
X131496000Y-49200000D02*
X129210000Y-51486000D01*
%TO.N,Dig3*%
X134036000Y-51851500D02*
X131750000Y-54137500D01*
X134036000Y-49200000D02*
X134036000Y-51851500D01*
D26*
%TO.N,Dig4*%
X134290000Y-69377500D02*
X138176000Y-65491500D01*
X138176000Y-50800000D02*
X136576000Y-49200000D01*
X138176000Y-65491500D02*
X138176000Y-50800000D01*
%TO.N,DS*%
X143764000Y-60452000D02*
X150876000Y-67564000D01*
X139116000Y-55804000D02*
X141986000Y-58674000D01*
X184666500Y-76708000D02*
X184666500Y-81373500D01*
X150876000Y-67564000D02*
X184912000Y-67564000D01*
X184666500Y-81373500D02*
X180000000Y-86040000D01*
X139116000Y-49200000D02*
X139116000Y-55804000D01*
%TO.N,ST_CP*%
X141656000Y-49200000D02*
X141656000Y-56566000D01*
X144526000Y-59690000D02*
X151384000Y-66548000D01*
X183642000Y-76708000D02*
X183642000Y-79756000D01*
X183388000Y-66548000D02*
X183896000Y-66548000D01*
X151384000Y-66548000D02*
X183388000Y-66548000D01*
X182372000Y-81026000D02*
X182306000Y-80960000D01*
X182306000Y-80960000D02*
X180000000Y-80960000D01*
X183642000Y-79756000D02*
X182372000Y-81026000D01*
X141656000Y-56566000D02*
X142748000Y-57658000D01*
%TO.N,SH_CP*%
X145720000Y-49200000D02*
X145720000Y-54686000D01*
X153416000Y-65786000D02*
X182626000Y-65786000D01*
X146050000Y-58420000D02*
X153416000Y-65786000D01*
X180914000Y-78420000D02*
X180000000Y-78420000D01*
X182626000Y-76708000D02*
X180914000Y-78420000D01*
X145720000Y-54686000D02*
X144018000Y-56388000D01*
%TO.N,Buzzer*%
X148260000Y-54280000D02*
X148260000Y-49200000D01*
X157160000Y-59360000D02*
X153340000Y-59360000D01*
X153340000Y-59360000D02*
X148260000Y-54280000D01*
%TO.N,RED_LED*%
X166624000Y-54864000D02*
X170180000Y-51308000D01*
X155448000Y-54864000D02*
X166624000Y-54864000D01*
X170180000Y-51308000D02*
X176784000Y-51308000D01*
X177216000Y-51740000D02*
X178740000Y-51740000D01*
X176784000Y-51308000D02*
X177216000Y-51740000D01*
X150800000Y-49200000D02*
X150800000Y-50470000D01*
X150800000Y-50470000D02*
X152908000Y-52578000D01*
%TO.N,GREEN_LED*%
X153340000Y-49200000D02*
X153340000Y-51486000D01*
X181610000Y-49530000D02*
X183820000Y-51740000D01*
X170434000Y-49530000D02*
X181610000Y-49530000D01*
X155448000Y-53594000D02*
X166370000Y-53594000D01*
X153340000Y-51486000D02*
X153670000Y-51816000D01*
X166370000Y-53594000D02*
X170434000Y-49530000D01*
D25*
%TO.N,Button_2*%
X193980000Y-54280000D02*
X188900000Y-49200000D01*
X193980000Y-92380000D02*
X193980000Y-54280000D01*
D26*
X119050000Y-83134000D02*
X119126000Y-83058000D01*
X155448000Y-52324000D02*
X165862000Y-52324000D01*
D25*
X148260000Y-100000000D02*
X188900000Y-100000000D01*
D26*
X122860000Y-89840000D02*
X119050000Y-86030000D01*
X119126000Y-78486000D02*
X120432000Y-77180000D01*
X169164000Y-49022000D02*
X188722000Y-49022000D01*
D25*
X193980000Y-94920000D02*
X193980000Y-92380000D01*
D26*
X136362000Y-77180000D02*
X148260000Y-89078000D01*
D25*
X188900000Y-100000000D02*
X193980000Y-94920000D01*
D26*
X119050000Y-86030000D02*
X119050000Y-85522000D01*
X165862000Y-52324000D02*
X169164000Y-49022000D01*
X154432000Y-50648000D02*
X154432000Y-51308000D01*
X121680000Y-77180000D02*
X134180000Y-77180000D01*
X155880000Y-49200000D02*
X154432000Y-50648000D01*
X148260000Y-89078000D02*
X148260000Y-94158000D01*
X188722000Y-49022000D02*
X188900000Y-49200000D01*
D25*
X135360000Y-77180000D02*
X135600000Y-77180000D01*
D26*
X148260000Y-96190000D02*
X148260000Y-100000000D01*
X120432000Y-77180000D02*
X121680000Y-77180000D01*
X134180000Y-77180000D02*
X136362000Y-77180000D01*
X119050000Y-85522000D02*
X119050000Y-83134000D01*
X119126000Y-81026000D02*
X119126000Y-78486000D01*
%TO.N,Button_1*%
X145542000Y-56896000D02*
X149860000Y-56896000D01*
X156058000Y-51562000D02*
X158420000Y-49200000D01*
X101270000Y-88570000D02*
X102540000Y-89840000D01*
X103900000Y-77180000D02*
X101270000Y-79810000D01*
X116400000Y-77180000D02*
X116400000Y-69782000D01*
X101270000Y-79810000D02*
X101270000Y-88570000D01*
X102540000Y-89840000D02*
X105080000Y-89840000D01*
X116400000Y-69782000D02*
X123444000Y-62738000D01*
X151130000Y-55626000D02*
X155194000Y-51562000D01*
X155194000Y-51562000D02*
X156058000Y-51562000D01*
X123444000Y-62738000D02*
X136652000Y-62738000D01*
X139700000Y-62738000D02*
X145542000Y-56896000D01*
X103900000Y-77180000D02*
X116400000Y-77180000D01*
%TO.N,a*%
X174752000Y-92202000D02*
X178374000Y-88580000D01*
X178374000Y-88580000D02*
X180000000Y-88580000D01*
X169926000Y-92202000D02*
X174752000Y-92202000D01*
%TO.N,Net-(U1-a)*%
X124130000Y-54137500D02*
X127650500Y-57658000D01*
X152400000Y-90932000D02*
X153670000Y-92202000D01*
X141478000Y-62738000D02*
X152400000Y-73660000D01*
X127650500Y-57658000D02*
X136398000Y-57658000D01*
X153670000Y-92202000D02*
X159766000Y-92202000D01*
X152400000Y-73660000D02*
X152400000Y-90932000D01*
X138938000Y-60198000D02*
X139700000Y-60960000D01*
D25*
%TO.N,b*%
X181280000Y-97460000D02*
X183820000Y-97460000D01*
X187620000Y-93660000D02*
X187620000Y-91120000D01*
X183820000Y-97460000D02*
X187620000Y-93660000D01*
D26*
%TO.N,Net-(U1-b)*%
X166370000Y-94234000D02*
X166370000Y-70612000D01*
X137414000Y-55626000D02*
X135925500Y-54137500D01*
X135925500Y-54137500D02*
X134290000Y-54137500D01*
X167818000Y-97460000D02*
X166370000Y-96012000D01*
X164338000Y-68580000D02*
X150368000Y-68580000D01*
X141224000Y-59436000D02*
X138938000Y-57150000D01*
X166370000Y-70612000D02*
X164338000Y-68580000D01*
X150368000Y-68580000D02*
X143002000Y-61214000D01*
X171120000Y-97460000D02*
X167818000Y-97460000D01*
%TO.N,c*%
X190950000Y-87180000D02*
X189550000Y-88580000D01*
X176530000Y-77724000D02*
X176588000Y-77724000D01*
X190950000Y-70808000D02*
X190950000Y-87180000D01*
X177877208Y-69516000D02*
X189658000Y-69516000D01*
X189658000Y-69516000D02*
X190950000Y-70808000D01*
X176588000Y-70805208D02*
X177877208Y-69516000D01*
X189550000Y-88580000D02*
X187620000Y-88580000D01*
X176022000Y-78232000D02*
X176530000Y-77724000D01*
X176588000Y-77724000D02*
X176588000Y-70805208D01*
X169926000Y-78232000D02*
X176022000Y-78232000D01*
%TO.N,Net-(U1-c)*%
X129210000Y-69377500D02*
X131524698Y-71692198D01*
X151151000Y-74571396D02*
X151151000Y-78232000D01*
X148271802Y-71692198D02*
X151151000Y-74571396D01*
X153924000Y-78232000D02*
X159766000Y-78232000D01*
X131524698Y-71692198D02*
X148271802Y-71692198D01*
%TO.N,d*%
X190058000Y-86040000D02*
X190246000Y-85852000D01*
X177256000Y-68616000D02*
X174752000Y-71120000D01*
X190282000Y-68616000D02*
X177256000Y-68616000D01*
X187620000Y-86040000D02*
X190058000Y-86040000D01*
X192199500Y-70533500D02*
X190282000Y-68616000D01*
X191574500Y-85852000D02*
X192199500Y-85227000D01*
X174752000Y-71120000D02*
X169926000Y-71120000D01*
X192199500Y-85227000D02*
X192199500Y-70533500D01*
%TO.N,Net-(U1-d)*%
X128412500Y-73660000D02*
X148590000Y-73660000D01*
X153924000Y-71120000D02*
X159766000Y-71120000D01*
X124130000Y-69377500D02*
X128412500Y-73660000D01*
%TO.N,e*%
X191574500Y-70796104D02*
X189844396Y-69066000D01*
X189844396Y-69066000D02*
X177568000Y-69066000D01*
X176138000Y-73798000D02*
X175514000Y-74422000D01*
X191574500Y-83566000D02*
X191574500Y-70796104D01*
X187620000Y-83500000D02*
X190180000Y-83500000D01*
X175514000Y-74422000D02*
X169926000Y-74422000D01*
X190180000Y-83500000D02*
X190246000Y-83566000D01*
X176138000Y-70496000D02*
X176138000Y-73798000D01*
X177568000Y-69066000D02*
X176138000Y-70496000D01*
%TO.N,Net-(U1-e)*%
X153924000Y-74930000D02*
X154432000Y-74422000D01*
X154432000Y-74422000D02*
X159766000Y-74422000D01*
X127142500Y-74930000D02*
X149098000Y-74930000D01*
X121590000Y-69377500D02*
X127142500Y-74930000D01*
%TO.N,f*%
X189220396Y-69966000D02*
X190500000Y-71245604D01*
X188788000Y-80960000D02*
X187620000Y-80960000D01*
X190500000Y-79248000D02*
X188788000Y-80960000D01*
X177038000Y-80772000D02*
X177038000Y-70991604D01*
X190500000Y-71245604D02*
X190500000Y-79248000D01*
X178063604Y-69966000D02*
X189220396Y-69966000D01*
X169926000Y-81788000D02*
X176022000Y-81788000D01*
X177038000Y-70991604D02*
X178063604Y-69966000D01*
X176022000Y-81788000D02*
X177038000Y-80772000D01*
%TO.N,Net-(U1-f)*%
X142240000Y-61976000D02*
X153162000Y-72898000D01*
X128920500Y-56388000D02*
X136652000Y-56388000D01*
X138938000Y-58674000D02*
X140462000Y-60198000D01*
X126670000Y-54137500D02*
X128920500Y-56388000D01*
X154940000Y-81788000D02*
X159766000Y-81788000D01*
X153162000Y-72898000D02*
X153162000Y-80010000D01*
X153162000Y-80010000D02*
X154940000Y-81788000D01*
%TO.N,g*%
X177546000Y-71120000D02*
X178250000Y-70416000D01*
X178250000Y-70416000D02*
X189034000Y-70416000D01*
X189034000Y-70416000D02*
X189934000Y-71316000D01*
X177546000Y-84328000D02*
X176530000Y-85344000D01*
X177546000Y-71120000D02*
X177546000Y-84328000D01*
X189934000Y-76106000D02*
X187620000Y-78420000D01*
X189934000Y-71316000D02*
X189934000Y-76106000D01*
X176530000Y-85344000D02*
X169926000Y-85344000D01*
%TO.N,Net-(U1-g)*%
X151775500Y-74559500D02*
X151775500Y-85344000D01*
X131750000Y-69377500D02*
X133492500Y-71120000D01*
X133492500Y-71120000D02*
X148336000Y-71120000D01*
X148336000Y-71120000D02*
X151775500Y-74559500D01*
X153162000Y-85344000D02*
X159766000Y-85344000D01*
%TO.N,dp*%
X189484000Y-74676000D02*
X189484000Y-71628000D01*
X189484000Y-71628000D02*
X188722000Y-70866000D01*
X187620000Y-75880000D02*
X188280000Y-75880000D01*
X176784000Y-88900000D02*
X169926000Y-88900000D01*
X188280000Y-75880000D02*
X189484000Y-74676000D01*
X188722000Y-70866000D02*
X178562000Y-70866000D01*
X178054000Y-71374000D02*
X178054000Y-87630000D01*
X178054000Y-87630000D02*
X176784000Y-88900000D01*
X178562000Y-70866000D02*
X178054000Y-71374000D01*
%TO.N,Net-(U1-DPX)*%
X150526000Y-74582792D02*
X150526000Y-79152000D01*
X126670000Y-69377500D02*
X129683896Y-72391396D01*
X153162000Y-88900000D02*
X159766000Y-88900000D01*
X150526000Y-79152000D02*
X150526000Y-87650500D01*
X150526000Y-87650500D02*
X151775500Y-88900000D01*
X148334604Y-72391396D02*
X150526000Y-74582792D01*
X129683896Y-72391396D02*
X148334604Y-72391396D01*
%TD*%
M02*
