%TF.GenerationSoftware,KiCad,Pcbnew,7.0.1*%
%TF.CreationDate,2023-04-20T18:42:28-06:00*%
%TF.ProjectId,Phase_B_Prototype,50686173-655f-4425-9f50-726f746f7479,rev?*%
%TF.SameCoordinates,Original*%
%TF.FileFunction,Soldermask,Top*%
%TF.FilePolarity,Negative*%
%FSLAX46Y46*%
G04 Gerber Fmt 4.6, Leading zero omitted, Abs format (unit mm)*
G04 Created by KiCad (PCBNEW 7.0.1) date 2023-04-20 18:42:28*
%MOMM*%
%LPD*%
G01*
G04 APERTURE LIST*
G04 Aperture macros list*
%AMRoundRect*
0 Rectangle with rounded corners*
0 $1 Rounding radius*
0 $2 $3 $4 $5 $6 $7 $8 $9 X,Y pos of 4 corners*
0 Add a 4 corners polygon primitive as box body*
4,1,4,$2,$3,$4,$5,$6,$7,$8,$9,$2,$3,0*
0 Add four circle primitives for the rounded corners*
1,1,$1+$1,$2,$3*
1,1,$1+$1,$4,$5*
1,1,$1+$1,$6,$7*
1,1,$1+$1,$8,$9*
0 Add four rect primitives between the rounded corners*
20,1,$1+$1,$2,$3,$4,$5,0*
20,1,$1+$1,$4,$5,$6,$7,0*
20,1,$1+$1,$6,$7,$8,$9,0*
20,1,$1+$1,$8,$9,$2,$3,0*%
G04 Aperture macros list end*
%ADD10R,1.500000X1.500000*%
%ADD11C,1.500000*%
%ADD12RoundRect,0.250000X-0.450000X0.262500X-0.450000X-0.262500X0.450000X-0.262500X0.450000X0.262500X0*%
%ADD13R,1.000000X0.700000*%
%ADD14RoundRect,0.250000X0.450000X-0.262500X0.450000X0.262500X-0.450000X0.262500X-0.450000X-0.262500X0*%
%ADD15RoundRect,0.225000X-0.250000X0.225000X-0.250000X-0.225000X0.250000X-0.225000X0.250000X0.225000X0*%
%ADD16R,1.400000X1.200000*%
%ADD17RoundRect,0.250000X0.262500X0.450000X-0.262500X0.450000X-0.262500X-0.450000X0.262500X-0.450000X0*%
%ADD18RoundRect,0.250000X-0.312500X-1.450000X0.312500X-1.450000X0.312500X1.450000X-0.312500X1.450000X0*%
%ADD19RoundRect,0.150000X-0.512500X-0.150000X0.512500X-0.150000X0.512500X0.150000X-0.512500X0.150000X0*%
%ADD20R,2.000000X1.500000*%
%ADD21R,1.700000X1.700000*%
%ADD22O,1.700000X1.700000*%
%ADD23RoundRect,0.225000X0.225000X0.250000X-0.225000X0.250000X-0.225000X-0.250000X0.225000X-0.250000X0*%
%ADD24RoundRect,0.225000X0.250000X-0.225000X0.250000X0.225000X-0.250000X0.225000X-0.250000X-0.225000X0*%
%ADD25R,1.500000X0.550000*%
%ADD26R,0.550000X1.500000*%
%ADD27RoundRect,0.225000X-0.225000X-0.250000X0.225000X-0.250000X0.225000X0.250000X-0.225000X0.250000X0*%
%ADD28RoundRect,0.200000X-0.200000X-0.275000X0.200000X-0.275000X0.200000X0.275000X-0.200000X0.275000X0*%
%ADD29RoundRect,0.243750X-0.243750X-0.456250X0.243750X-0.456250X0.243750X0.456250X-0.243750X0.456250X0*%
%ADD30C,1.000000*%
%ADD31R,2.000000X0.500000*%
%ADD32R,1.700000X2.000000*%
%ADD33RoundRect,0.100000X-0.637500X-0.100000X0.637500X-0.100000X0.637500X0.100000X-0.637500X0.100000X0*%
%ADD34RoundRect,0.200000X0.200000X0.275000X-0.200000X0.275000X-0.200000X-0.275000X0.200000X-0.275000X0*%
%ADD35RoundRect,0.243750X0.243750X0.456250X-0.243750X0.456250X-0.243750X-0.456250X0.243750X-0.456250X0*%
%ADD36RoundRect,0.200000X0.275000X-0.200000X0.275000X0.200000X-0.275000X0.200000X-0.275000X-0.200000X0*%
%ADD37RoundRect,0.250000X-0.475000X0.250000X-0.475000X-0.250000X0.475000X-0.250000X0.475000X0.250000X0*%
%ADD38R,2.000000X2.000000*%
%ADD39C,2.000000*%
G04 APERTURE END LIST*
D10*
%TO.C,U1*%
X132118000Y-59144000D03*
D11*
X134658000Y-59144000D03*
X137198000Y-59144000D03*
X139738000Y-59144000D03*
X142278000Y-59144000D03*
X144818000Y-59144000D03*
X144818000Y-43904000D03*
X142278000Y-43904000D03*
X139738000Y-43904000D03*
X137198000Y-43904000D03*
X134658000Y-43904000D03*
X132118000Y-43904000D03*
%TD*%
D12*
%TO.C,R17*%
X167106600Y-69648700D03*
X167106600Y-71473700D03*
%TD*%
D13*
%TO.C,S3*%
X141439800Y-110223400D03*
X135439800Y-110223400D03*
X141439800Y-106523400D03*
X135439800Y-106523400D03*
%TD*%
D14*
%TO.C,R11*%
X143675000Y-66484600D03*
X143675000Y-64659600D03*
%TD*%
D15*
%TO.C,C2*%
X150952200Y-109829000D03*
X150952200Y-111379000D03*
%TD*%
D14*
%TO.C,R12*%
X147561200Y-66484600D03*
X147561200Y-64659600D03*
%TD*%
D16*
%TO.C,Y1*%
X148796000Y-109613800D03*
X146596000Y-109613800D03*
X146596000Y-111213800D03*
X148796000Y-111213800D03*
%TD*%
D14*
%TO.C,R3*%
X174863900Y-61297300D03*
X174863900Y-59472300D03*
%TD*%
D17*
%TO.C,R14*%
X128278800Y-88582600D03*
X126453800Y-88582600D03*
%TD*%
D18*
%TO.C,F1*%
X115832700Y-84899600D03*
X120107700Y-84899600D03*
%TD*%
D19*
%TO.C,U4*%
X123570400Y-92801000D03*
X123570400Y-93751000D03*
X123570400Y-94701000D03*
X125845400Y-94701000D03*
X125845400Y-93751000D03*
X125845400Y-92801000D03*
%TD*%
D20*
%TO.C,S1*%
X174434200Y-116573400D03*
X160134200Y-116573400D03*
X174434200Y-111573400D03*
X160134200Y-111573400D03*
%TD*%
D14*
%TO.C,R6*%
X135191400Y-66484600D03*
X135191400Y-64659600D03*
%TD*%
D21*
%TO.C,J3*%
X156464000Y-69215000D03*
D22*
X156464000Y-71755000D03*
X159004000Y-69215000D03*
X159004000Y-71755000D03*
X161544000Y-69215000D03*
X161544000Y-71755000D03*
X164084000Y-69215000D03*
X164084000Y-71755000D03*
%TD*%
D23*
%TO.C,C9*%
X139218000Y-96774000D03*
X137668000Y-96774000D03*
%TD*%
D14*
%TO.C,R9*%
X126377600Y-66484600D03*
X126377600Y-64659600D03*
%TD*%
D24*
%TO.C,C12*%
X158369000Y-79654400D03*
X158369000Y-78104400D03*
%TD*%
D25*
%TO.C,U3*%
X142140600Y-91313600D03*
X142140600Y-92113600D03*
X142140600Y-92913600D03*
X142140600Y-93713600D03*
X142140600Y-94513600D03*
X142140600Y-95313600D03*
X142140600Y-96113600D03*
X142140600Y-96913600D03*
X142140600Y-97713600D03*
X142140600Y-98513600D03*
X142140600Y-99313600D03*
D26*
X143840600Y-101013600D03*
X144640600Y-101013600D03*
X145440600Y-101013600D03*
X146240600Y-101013600D03*
X147040600Y-101013600D03*
X147840600Y-101013600D03*
X148640600Y-101013600D03*
X149440600Y-101013600D03*
X150240600Y-101013600D03*
X151040600Y-101013600D03*
X151840600Y-101013600D03*
D25*
X153540600Y-99313600D03*
X153540600Y-98513600D03*
X153540600Y-97713600D03*
X153540600Y-96913600D03*
X153540600Y-96113600D03*
X153540600Y-95313600D03*
X153540600Y-94513600D03*
X153540600Y-93713600D03*
X153540600Y-92913600D03*
X153540600Y-92113600D03*
X153540600Y-91313600D03*
D26*
X151840600Y-89613600D03*
X151040600Y-89613600D03*
X150240600Y-89613600D03*
X149440600Y-89613600D03*
X148640600Y-89613600D03*
X147840600Y-89613600D03*
X147040600Y-89613600D03*
X146240600Y-89613600D03*
X145440600Y-89613600D03*
X144640600Y-89613600D03*
X143840600Y-89613600D03*
%TD*%
D27*
%TO.C,C6*%
X155625200Y-98780600D03*
X157175200Y-98780600D03*
%TD*%
D28*
%TO.C,R15*%
X116077400Y-94548600D03*
X117727400Y-94548600D03*
%TD*%
%TO.C,R16*%
X116077400Y-92872200D03*
X117727400Y-92872200D03*
%TD*%
D14*
%TO.C,R8*%
X130949600Y-66484600D03*
X130949600Y-64659600D03*
%TD*%
D24*
%TO.C,C14*%
X165735000Y-78689200D03*
X165735000Y-77139200D03*
%TD*%
%TO.C,C5*%
X143840200Y-87680800D03*
X143840200Y-86130800D03*
%TD*%
D23*
%TO.C,C13*%
X163068600Y-83235800D03*
X161518600Y-83235800D03*
%TD*%
D24*
%TO.C,C1*%
X144551400Y-111404400D03*
X144551400Y-109854400D03*
%TD*%
D14*
%TO.C,R10*%
X122110400Y-66484600D03*
X122110400Y-64659600D03*
%TD*%
%TO.C,R4*%
X190639600Y-61299200D03*
X190639600Y-59474200D03*
%TD*%
D23*
%TO.C,C3*%
X151778000Y-87604600D03*
X150228000Y-87604600D03*
%TD*%
D15*
%TO.C,C7*%
X145846800Y-104545800D03*
X145846800Y-106095800D03*
%TD*%
D20*
%TO.C,S2*%
X194398600Y-116522600D03*
X180098600Y-116522600D03*
X194398600Y-111522600D03*
X180098600Y-111522600D03*
%TD*%
D23*
%TO.C,C11*%
X139218000Y-95046800D03*
X137668000Y-95046800D03*
%TD*%
D29*
%TO.C,D2*%
X185028500Y-59470400D03*
X186903500Y-59470400D03*
%TD*%
D14*
%TO.C,R7*%
X139712600Y-66484600D03*
X139712600Y-64659600D03*
%TD*%
D23*
%TO.C,C8*%
X139217400Y-91846400D03*
X137667400Y-91846400D03*
%TD*%
D14*
%TO.C,R5*%
X151574400Y-66484600D03*
X151574400Y-64659600D03*
%TD*%
D30*
%TO.C,J1*%
X108623000Y-91955000D03*
X108623000Y-96355000D03*
D31*
X111323000Y-92555000D03*
X111323000Y-93355000D03*
X111323000Y-94155000D03*
X111323000Y-94955000D03*
X111323000Y-95755000D03*
D32*
X111223000Y-89705000D03*
X105773000Y-89705000D03*
X111223000Y-98605000D03*
X105773000Y-98605000D03*
%TD*%
D29*
%TO.C,D3*%
X122315900Y-88582600D03*
X124190900Y-88582600D03*
%TD*%
D33*
%TO.C,U2*%
X136367500Y-75842800D03*
X136367500Y-76492800D03*
X136367500Y-77142800D03*
X136367500Y-77792800D03*
X136367500Y-78442800D03*
X136367500Y-79092800D03*
X136367500Y-79742800D03*
X136367500Y-80392800D03*
X142092500Y-80392800D03*
X142092500Y-79742800D03*
X142092500Y-79092800D03*
X142092500Y-78442800D03*
X142092500Y-77792800D03*
X142092500Y-77142800D03*
X142092500Y-76492800D03*
X142092500Y-75842800D03*
%TD*%
D28*
%TO.C,R2*%
X183362600Y-105587800D03*
X185012600Y-105587800D03*
%TD*%
D34*
%TO.C,R1*%
X157047600Y-118376800D03*
X155397600Y-118376800D03*
%TD*%
D19*
%TO.C,U5*%
X160615200Y-79634000D03*
X160615200Y-80584000D03*
X160615200Y-81534000D03*
X162890200Y-81534000D03*
X162890200Y-79634000D03*
%TD*%
D35*
%TO.C,D1*%
X181412500Y-59470400D03*
X179537500Y-59470400D03*
%TD*%
D27*
%TO.C,C10*%
X145439800Y-87655400D03*
X146989800Y-87655400D03*
%TD*%
D36*
%TO.C,R13*%
X143497200Y-106082200D03*
X143497200Y-104432200D03*
%TD*%
D21*
%TO.C,J2*%
X134886600Y-103136800D03*
D22*
X134886600Y-100596800D03*
X132346600Y-103136800D03*
X132346600Y-100596800D03*
X129806600Y-103136800D03*
X129806600Y-100596800D03*
%TD*%
D37*
%TO.C,C4*%
X137490200Y-86238000D03*
X137490200Y-88138000D03*
%TD*%
D38*
%TO.C,LS1*%
X174421800Y-77063600D03*
D39*
X182021800Y-77063600D03*
%TD*%
M02*
