%TF.GenerationSoftware,KiCad,Pcbnew,7.0.1*%
%TF.CreationDate,2023-04-20T18:42:28-06:00*%
%TF.ProjectId,Phase_B_Prototype,50686173-655f-4425-9f50-726f746f7479,rev?*%
%TF.SameCoordinates,Original*%
%TF.FileFunction,Other,User*%
%FSLAX46Y46*%
G04 Gerber Fmt 4.6, Leading zero omitted, Abs format (unit mm)*
G04 Created by KiCad (PCBNEW 7.0.1) date 2023-04-20 18:42:28*
%MOMM*%
%LPD*%
G01*
G04 APERTURE LIST*
%ADD10C,0.050000*%
%ADD11C,0.100000*%
G04 APERTURE END LIST*
D10*
%TO.C,U1*%
X113068000Y-61274000D02*
X113068000Y-41774000D01*
X163868000Y-61274000D02*
X113068000Y-61274000D01*
X113068000Y-41774000D02*
X163868000Y-41774000D01*
X163868000Y-41774000D02*
X163868000Y-61274000D01*
%TO.C,R17*%
X168056600Y-68881200D02*
X168056600Y-72241200D01*
X166156600Y-68881200D02*
X168056600Y-68881200D01*
X168056600Y-72241200D02*
X166156600Y-72241200D01*
X166156600Y-72241200D02*
X166156600Y-68881200D01*
%TO.C,S3*%
X142189800Y-111023400D02*
X134689800Y-111023400D01*
X142189800Y-105723400D02*
X142189800Y-111023400D01*
X134689800Y-111023400D02*
X134689800Y-105723400D01*
X134689800Y-105723400D02*
X142189800Y-105723400D01*
%TO.C,R11*%
X142725000Y-67252100D02*
X142725000Y-63892100D01*
X144625000Y-67252100D02*
X142725000Y-67252100D01*
X142725000Y-63892100D02*
X144625000Y-63892100D01*
X144625000Y-63892100D02*
X144625000Y-67252100D01*
%TO.C,C2*%
X151682200Y-109124000D02*
X151682200Y-112084000D01*
X150222200Y-109124000D02*
X151682200Y-109124000D01*
X151682200Y-112084000D02*
X150222200Y-112084000D01*
X150222200Y-112084000D02*
X150222200Y-109124000D01*
%TO.C,R12*%
X146611200Y-67252100D02*
X146611200Y-63892100D01*
X148511200Y-67252100D02*
X146611200Y-67252100D01*
X146611200Y-63892100D02*
X148511200Y-63892100D01*
X148511200Y-63892100D02*
X148511200Y-67252100D01*
%TO.C,Y1*%
X149796000Y-112113800D02*
X149796000Y-108713800D01*
X149796000Y-108713800D02*
X145596000Y-108713800D01*
X145596000Y-112113800D02*
X149796000Y-112113800D01*
X145596000Y-108713800D02*
X145596000Y-112113800D01*
%TO.C,R3*%
X173913900Y-62064800D02*
X173913900Y-58704800D01*
X175813900Y-62064800D02*
X173913900Y-62064800D01*
X173913900Y-58704800D02*
X175813900Y-58704800D01*
X175813900Y-58704800D02*
X175813900Y-62064800D01*
%TO.C,R14*%
X129046300Y-89532600D02*
X125686300Y-89532600D01*
X129046300Y-87632600D02*
X129046300Y-89532600D01*
X125686300Y-89532600D02*
X125686300Y-87632600D01*
X125686300Y-87632600D02*
X129046300Y-87632600D01*
%TO.C,F1*%
X115020200Y-82949600D02*
X120920200Y-82949600D01*
X115020200Y-86849600D02*
X115020200Y-82949600D01*
X120920200Y-82949600D02*
X120920200Y-86849600D01*
X120920200Y-86849600D02*
X115020200Y-86849600D01*
%TO.C,U4*%
X122657900Y-92051000D02*
X122657900Y-95451000D01*
X122657900Y-95451000D02*
X126757900Y-95451000D01*
X126757900Y-92051000D02*
X122657900Y-92051000D01*
X126757900Y-95451000D02*
X126757900Y-92051000D01*
D11*
%TO.C,S1*%
X176434200Y-121073400D02*
X158134200Y-121073400D01*
X176434200Y-121073400D02*
X158134200Y-121073400D01*
X176434200Y-107073400D02*
X176434200Y-121073400D01*
X176434200Y-107073400D02*
X176434200Y-121073400D01*
X158134200Y-121073400D02*
X158134200Y-107073400D01*
X158134200Y-121073400D02*
X158134200Y-107073400D01*
X158134200Y-107073400D02*
X176434200Y-107073400D01*
X158134200Y-107073400D02*
X176434200Y-107073400D01*
D10*
%TO.C,R6*%
X134241400Y-67252100D02*
X134241400Y-63892100D01*
X136141400Y-67252100D02*
X134241400Y-67252100D01*
X134241400Y-63892100D02*
X136141400Y-63892100D01*
X136141400Y-63892100D02*
X136141400Y-67252100D01*
%TO.C,J3*%
X154664000Y-73555000D02*
X154664000Y-67455000D01*
X165864000Y-73555000D02*
X154664000Y-73555000D01*
X154664000Y-67455000D02*
X165864000Y-67455000D01*
X165864000Y-67455000D02*
X165864000Y-73555000D01*
%TO.C,C9*%
X139923000Y-97504000D02*
X136963000Y-97504000D01*
X139923000Y-96044000D02*
X139923000Y-97504000D01*
X136963000Y-97504000D02*
X136963000Y-96044000D01*
X136963000Y-96044000D02*
X139923000Y-96044000D01*
%TO.C,R9*%
X125427600Y-67252100D02*
X125427600Y-63892100D01*
X127327600Y-67252100D02*
X125427600Y-67252100D01*
X125427600Y-63892100D02*
X127327600Y-63892100D01*
X127327600Y-63892100D02*
X127327600Y-67252100D01*
%TO.C,C12*%
X157639000Y-80359400D02*
X157639000Y-77399400D01*
X159099000Y-80359400D02*
X157639000Y-80359400D01*
X157639000Y-77399400D02*
X159099000Y-77399400D01*
X159099000Y-77399400D02*
X159099000Y-80359400D01*
%TO.C,U3*%
X141140600Y-88613600D02*
X141140600Y-102013600D01*
X141140600Y-88613600D02*
X154540600Y-88613600D01*
X141140600Y-102013600D02*
X154540600Y-102013600D01*
X154540600Y-88613600D02*
X154540600Y-102013600D01*
%TO.C,C6*%
X154920200Y-98050600D02*
X157880200Y-98050600D01*
X154920200Y-99510600D02*
X154920200Y-98050600D01*
X157880200Y-98050600D02*
X157880200Y-99510600D01*
X157880200Y-99510600D02*
X154920200Y-99510600D01*
%TO.C,R15*%
X115422400Y-93818600D02*
X118382400Y-93818600D01*
X115422400Y-95278600D02*
X115422400Y-93818600D01*
X118382400Y-93818600D02*
X118382400Y-95278600D01*
X118382400Y-95278600D02*
X115422400Y-95278600D01*
%TO.C,R16*%
X115422400Y-92142200D02*
X118382400Y-92142200D01*
X115422400Y-93602200D02*
X115422400Y-92142200D01*
X118382400Y-92142200D02*
X118382400Y-93602200D01*
X118382400Y-93602200D02*
X115422400Y-93602200D01*
%TO.C,R8*%
X129999600Y-67252100D02*
X129999600Y-63892100D01*
X131899600Y-67252100D02*
X129999600Y-67252100D01*
X129999600Y-63892100D02*
X131899600Y-63892100D01*
X131899600Y-63892100D02*
X131899600Y-67252100D01*
%TO.C,C14*%
X165005000Y-79394200D02*
X165005000Y-76434200D01*
X166465000Y-79394200D02*
X165005000Y-79394200D01*
X165005000Y-76434200D02*
X166465000Y-76434200D01*
X166465000Y-76434200D02*
X166465000Y-79394200D01*
%TO.C,C5*%
X143110200Y-88385800D02*
X143110200Y-85425800D01*
X144570200Y-88385800D02*
X143110200Y-88385800D01*
X143110200Y-85425800D02*
X144570200Y-85425800D01*
X144570200Y-85425800D02*
X144570200Y-88385800D01*
%TO.C,C13*%
X163773600Y-83965800D02*
X160813600Y-83965800D01*
X163773600Y-82505800D02*
X163773600Y-83965800D01*
X160813600Y-83965800D02*
X160813600Y-82505800D01*
X160813600Y-82505800D02*
X163773600Y-82505800D01*
%TO.C,C1*%
X143821400Y-112109400D02*
X143821400Y-109149400D01*
X145281400Y-112109400D02*
X143821400Y-112109400D01*
X143821400Y-109149400D02*
X145281400Y-109149400D01*
X145281400Y-109149400D02*
X145281400Y-112109400D01*
%TO.C,R10*%
X121160400Y-67252100D02*
X121160400Y-63892100D01*
X123060400Y-67252100D02*
X121160400Y-67252100D01*
X121160400Y-63892100D02*
X123060400Y-63892100D01*
X123060400Y-63892100D02*
X123060400Y-67252100D01*
%TO.C,R4*%
X189689600Y-62066700D02*
X189689600Y-58706700D01*
X191589600Y-62066700D02*
X189689600Y-62066700D01*
X189689600Y-58706700D02*
X191589600Y-58706700D01*
X191589600Y-58706700D02*
X191589600Y-62066700D01*
%TO.C,C3*%
X152483000Y-88334600D02*
X149523000Y-88334600D01*
X152483000Y-86874600D02*
X152483000Y-88334600D01*
X149523000Y-88334600D02*
X149523000Y-86874600D01*
X149523000Y-86874600D02*
X152483000Y-86874600D01*
%TO.C,C7*%
X146576800Y-103840800D02*
X146576800Y-106800800D01*
X145116800Y-103840800D02*
X146576800Y-103840800D01*
X146576800Y-106800800D02*
X145116800Y-106800800D01*
X145116800Y-106800800D02*
X145116800Y-103840800D01*
D11*
%TO.C,S2*%
X196398600Y-121022600D02*
X178098600Y-121022600D01*
X196398600Y-121022600D02*
X178098600Y-121022600D01*
X196398600Y-107022600D02*
X196398600Y-121022600D01*
X196398600Y-107022600D02*
X196398600Y-121022600D01*
X178098600Y-121022600D02*
X178098600Y-107022600D01*
X178098600Y-121022600D02*
X178098600Y-107022600D01*
X178098600Y-107022600D02*
X196398600Y-107022600D01*
X178098600Y-107022600D02*
X196398600Y-107022600D01*
D10*
%TO.C,C11*%
X139923000Y-95776800D02*
X136963000Y-95776800D01*
X139923000Y-94316800D02*
X139923000Y-95776800D01*
X136963000Y-95776800D02*
X136963000Y-94316800D01*
X136963000Y-94316800D02*
X139923000Y-94316800D01*
%TO.C,D2*%
X184286000Y-58520400D02*
X187646000Y-58520400D01*
X184286000Y-60420400D02*
X184286000Y-58520400D01*
X187646000Y-58520400D02*
X187646000Y-60420400D01*
X187646000Y-60420400D02*
X184286000Y-60420400D01*
%TO.C,R7*%
X138762600Y-67252100D02*
X138762600Y-63892100D01*
X140662600Y-67252100D02*
X138762600Y-67252100D01*
X138762600Y-63892100D02*
X140662600Y-63892100D01*
X140662600Y-63892100D02*
X140662600Y-67252100D01*
%TO.C,C8*%
X139922400Y-92576400D02*
X136962400Y-92576400D01*
X139922400Y-91116400D02*
X139922400Y-92576400D01*
X136962400Y-92576400D02*
X136962400Y-91116400D01*
X136962400Y-91116400D02*
X139922400Y-91116400D01*
%TO.C,R5*%
X150624400Y-67252100D02*
X150624400Y-63892100D01*
X152524400Y-67252100D02*
X150624400Y-67252100D01*
X150624400Y-63892100D02*
X152524400Y-63892100D01*
X152524400Y-63892100D02*
X152524400Y-67252100D01*
%TO.C,J1*%
X112573000Y-88205000D02*
X109873000Y-88205000D01*
X112573000Y-88205000D02*
X112573000Y-91805000D01*
X107123000Y-88205000D02*
X104423000Y-88205000D01*
X109873000Y-89805000D02*
X109873000Y-88205000D01*
X109873000Y-89805000D02*
X107123000Y-89805000D01*
X107123000Y-89805000D02*
X107123000Y-88205000D01*
X104423000Y-89805000D02*
X104423000Y-88205000D01*
X102273000Y-89805000D02*
X104423000Y-89805000D01*
X102273000Y-89805000D02*
X102273000Y-98505000D01*
X112573000Y-91805000D02*
X112823000Y-91805000D01*
X112823000Y-96505000D02*
X112823000Y-91805000D01*
X112573000Y-96505000D02*
X112823000Y-96505000D01*
X109873000Y-98505000D02*
X107123000Y-98505000D01*
X109873000Y-98505000D02*
X109873000Y-100105000D01*
X107123000Y-98505000D02*
X107123000Y-100105000D01*
X104423000Y-98505000D02*
X104423000Y-100105000D01*
X102273000Y-98505000D02*
X104423000Y-98505000D01*
X112573000Y-100105000D02*
X112573000Y-96505000D01*
X112573000Y-100105000D02*
X109873000Y-100105000D01*
X107123000Y-100105000D02*
X104423000Y-100105000D01*
%TO.C,D3*%
X121573400Y-87632600D02*
X124933400Y-87632600D01*
X121573400Y-89532600D02*
X121573400Y-87632600D01*
X124933400Y-87632600D02*
X124933400Y-89532600D01*
X124933400Y-89532600D02*
X121573400Y-89532600D01*
%TO.C,U2*%
X135380000Y-75367800D02*
X135380000Y-80867800D01*
X135380000Y-80867800D02*
X143080000Y-80867800D01*
X143080000Y-75367800D02*
X135380000Y-75367800D01*
X143080000Y-80867800D02*
X143080000Y-75367800D01*
%TO.C,R2*%
X182707600Y-104857800D02*
X185667600Y-104857800D01*
X182707600Y-106317800D02*
X182707600Y-104857800D01*
X185667600Y-104857800D02*
X185667600Y-106317800D01*
X185667600Y-106317800D02*
X182707600Y-106317800D01*
%TO.C,R1*%
X157702600Y-119106800D02*
X154742600Y-119106800D01*
X157702600Y-117646800D02*
X157702600Y-119106800D01*
X154742600Y-119106800D02*
X154742600Y-117646800D01*
X154742600Y-117646800D02*
X157702600Y-117646800D01*
%TO.C,U5*%
X159702700Y-78884000D02*
X159702700Y-82284000D01*
X159702700Y-82284000D02*
X163802700Y-82284000D01*
X163802700Y-78884000D02*
X159702700Y-78884000D01*
X163802700Y-82284000D02*
X163802700Y-78884000D01*
%TO.C,D1*%
X182155000Y-60420400D02*
X178795000Y-60420400D01*
X182155000Y-58520400D02*
X182155000Y-60420400D01*
X178795000Y-60420400D02*
X178795000Y-58520400D01*
X178795000Y-58520400D02*
X182155000Y-58520400D01*
%TO.C,C10*%
X144734800Y-86925400D02*
X147694800Y-86925400D01*
X144734800Y-88385400D02*
X144734800Y-86925400D01*
X147694800Y-86925400D02*
X147694800Y-88385400D01*
X147694800Y-88385400D02*
X144734800Y-88385400D01*
%TO.C,R13*%
X142767200Y-106737200D02*
X142767200Y-103777200D01*
X144227200Y-106737200D02*
X142767200Y-106737200D01*
X142767200Y-103777200D02*
X144227200Y-103777200D01*
X144227200Y-103777200D02*
X144227200Y-106737200D01*
%TO.C,J2*%
X136686600Y-98796800D02*
X136686600Y-104896800D01*
X128036600Y-98796800D02*
X136686600Y-98796800D01*
X136686600Y-104896800D02*
X128036600Y-104896800D01*
X128036600Y-104896800D02*
X128036600Y-98796800D01*
%TO.C,C4*%
X138470200Y-85488000D02*
X138470200Y-88888000D01*
X136510200Y-85488000D02*
X138470200Y-85488000D01*
X138470200Y-88888000D02*
X136510200Y-88888000D01*
X136510200Y-88888000D02*
X136510200Y-85488000D01*
%TO.C,LS1*%
X184471800Y-77063600D02*
G75*
G03*
X184471800Y-77063600I-6250000J0D01*
G01*
%TD*%
M02*
