M48
; DRILL file {KiCad 7.0.1} date Mon Apr 24 08:19:58 2023
; FORMAT={-:-/ absolute / metric / decimal}
; #@! TF.CreationDate,2023-04-24T08:19:58-06:00
; #@! TF.GenerationSoftware,Kicad,Pcbnew,7.0.1
; #@! TF.FileFunction,Plated,1,2,PTH
FMAT,2
METRIC
; #@! TA.AperFunction,Plated,PTH,ViaDrill
T1C0.400
; #@! TA.AperFunction,Plated,PTH,ComponentDrill
T2C1.000
%
G90
G05
T1
X111.315Y-96.355
X121.475Y-88.659
X122.542Y-93.739
X134.057Y-47.409
X135.259Y-47.409
X136.804Y-95.047
X136.829Y-91.846
X136.855Y-96.774
X137.3Y-121.725
X137.3Y-123.105
X137.452Y-80.404
X137.49Y-89.017
X140.76Y-100.247
X140.798Y-98.634
X141.008Y-77.813
X141.11Y-85.505
X141.11Y-86.885
X142.294Y-110.217
X143.243Y-94.552
X143.866Y-85.319
X144.551Y-109.042
X144.64Y-90.716
X144.818Y-53.895
X144.818Y-55.097
X145.847Y-106.934
X146.24Y-99.911
X146.586Y-108.674
X146.99Y-86.843
X148.209Y-88.265
X148.209Y-92.448
X148.444Y-42.03
X148.839Y-103.315
X148.847Y-112.179
X149.01Y-42.596
X149.294Y-41.18
X149.428Y-87.63
X150.042Y-103.315
X150.952Y-112.166
X150.973Y-59.195
X151.007Y-40.585
X151.041Y-90.716
X152.687Y-83.523
X153.309Y-82.9
X153.556Y-90.665
X153.556Y-99.936
X153.663Y-84.499
X153.699Y-59.195
X154.343Y-83.934
X154.622Y-118.377
X157.988Y-98.781
X158.369Y-77.394
X160.706Y-83.236
X161.663Y-80.581
X162.319Y-95.512
X162.319Y-98.315
X164.528Y-95.491
X164.528Y-98.315
X166.675Y-77.14
X168.783Y-74.422
X168.82Y-84.277
X170.425Y-74.422
X170.434Y-84.277
X182.258Y-59.47
X184.163Y-59.47
X185.814Y-105.55
X190.76Y-97.288
X190.767Y-95.415
T2
X129.807Y-100.597
X129.807Y-103.137
X132.118Y-43.904
X132.118Y-59.144
X132.347Y-100.597
X132.347Y-103.137
X134.658Y-43.904
X134.658Y-59.144
X134.887Y-100.597
X134.887Y-103.137
X137.198Y-43.904
X137.198Y-59.144
X139.738Y-43.904
X139.738Y-59.144
X142.278Y-43.904
X142.278Y-59.144
X144.818Y-43.904
X144.818Y-59.144
X156.464Y-69.215
X156.464Y-71.755
X159.004Y-69.215
X159.004Y-71.755
X161.544Y-69.215
X161.544Y-71.755
X164.084Y-69.215
X164.084Y-71.755
X174.422Y-77.064
X182.022Y-77.064
T0
M30
